<svg xmlns="http://www.w3.org/2000/svg" xmlns:xlink="http://www.w3.org/1999/xlink" xml:space="preserve" style="shape-rendering:geometricPrecision;text-rendering:geometricPrecision;image-rendering:optimizeQuality;" viewBox="0 0 7.66666 9.583325" x="0px" y="0px" fill-rule="evenodd" clip-rule="evenodd"><defs><style type="text/css">
   
    .fil1 {fill:none}
    .fil0 {fill:black}
   
  </style></defs><g><path class="fil0" d="M5.6958 5.38197l0 0.602201c0,0.197197 -0.0785472,0.385264 -0.217882,0.524602 -0.139339,0.139343 -0.327413,0.217886 -0.52461,0.217886l-1.76584 0c-0.197197,0 -0.385268,-0.0785433 -0.524606,-0.217882 -0.139339,-0.139339 -0.217886,-0.327406 -0.217886,-0.524606l0 -0.554106c-0.296366,-0.18761 -0.552201,-0.4325 -0.749732,-0.723622 -0.11039,-0.162697 -0.147303,-0.203272 -0.210689,-0.379382 -0.0209213,-0.0489606 -0.0386299,-0.0972638 -0.0514646,-0.143016 -0.148685,-0.417157 -0.173067,-0.882921 0.15111,-1.22625 0.149776,-0.158622 0.350673,-0.26039 0.561291,-0.313906 0.00183465,-0.135543 0.0082874,-0.261551 0.0191614,-0.371476 0.0304016,-0.307252 0.184559,-0.564091 0.403488,-0.774917 0.288004,-0.277339 0.679114,-0.430634 1.067,-0.503051 0.394299,-0.0736142 0.819248,-0.0709961 1.21397,-0.00294094 0.386445,0.0666299 0.855496,0.209638 1.13367,0.50328 0.0096378,0.00801181 0.0187441,0.0165354 0.0272913,0.0255039 0.267618,0.274744 0.320878,1.15248 0.327886,1.50269 0.0144016,0.719496 -0.100882,1.55267 -0.499701,2.16513 -0.0437913,0.067248 -0.091252,0.132087 -0.142457,0.193862zm-4.04031 -1.07213l0.0582244 0.106909c0.0365354,0.0670827 0.0765551,0.132898 0.119449,0.196114 0.184374,0.271736 0.423673,0.500843 0.700961,0.676374l0.0775197 0.0490748 0 0.645854c0,0.152965 0.0609764,0.298661 0.169071,0.406756 0.108094,0.108094 0.253795,0.169067 0.406756,0.169067l1.76584 0c0.152961,0 0.298665,-0.0609724 0.40676,-0.169071 0.108091,-0.108094 0.169067,-0.253791 0.169067,-0.406752l0 -0.662295 0.0383504 -0.0462638c0.0471299,-0.0568622 0.0908071,-0.116563 0.131106,-0.178449 0.37972,-0.58313 0.486413,-1.38731 0.472732,-2.07085 -0.00626772,-0.313283 -0.0619016,-1.1627 -0.281272,-1.39039 -0.00642126,-0.00666142 -0.0144134,-0.0131378 -0.0212402,-0.0195354 -0.268035,-0.251201 -0.691461,-0.399169 -1.04802,-0.460646 -0.376209,-0.0648622 -0.779421,-0.0675945 -1.15506,0.00253543 -0.354925,0.0662638 -0.718236,0.205283 -0.981984,0.459268 -0.190157,0.183118 -0.326843,0.404476 -0.35324,0.671276 -0.0117205,0.118476 -0.0167559,0.238307 -0.0183661,0.357323l-0.00172835 0.127799 -0.123878 0.0314764c-0.179075,0.0455039 -0.353146,0.131228 -0.481154,0.266795 -0.278417,0.294866 -0.226583,0.705669 -0.113465,1.06131 0.0146654,0.0461142 0.0330551,0.0915197 0.0494567,0.137091l0.0141142 0.0392244z"/><g><path class="fil0" d="M3.29583 2.14972c0.00210236,-0.00197638 0.723386,-0.697295 1.81797,-0.01 0.0397598,0.0250354 0.0516969,0.0775709 0.0266654,0.117331 -0.0250315,0.0397598 -0.0775709,0.0516969 -0.117331,0.0266654 -0.981894,-0.616543 -1.60881,-0.0117165 -1.61064,-0.01 -0.0342362,0.0322165 -0.0881181,0.0305709 -0.120331,-0.00366535 -0.0322126,-0.0342362 -0.0305709,-0.0881181 0.00366535,-0.120331zm-0.799465 0.155508c-0.0125512,0.561421 0.0193386,1.49328 0.187673,1.92744 0.016937,0.043811 -0.00485039,0.0930591 -0.0486614,0.109996 -0.043811,0.016937 -0.0930591,-0.00485039 -0.109996,-0.0486614 -0.129291,-0.333437 -0.176567,-0.902386 -0.192906,-1.3485 -0.245465,0.0384803 -0.909154,0.227165 -0.583437,1.13212l0.000330709 -0.00011811c0.00130709,0.00363386 0.00234646,0.00729528 0.00314173,0.0109646 0.022878,0.0714173 0.24263,0.704799 0.962472,1.11508l2.66589 0 0.0290709 0c0.0541732,-0.0618228 0.103736,-0.127839 0.148988,-0.197331 0.355469,-0.545902 0.45898,-1.31641 0.445768,-1.97657 -0.0130472,-0.651933 -0.13263,-1.18437 -0.234614,-1.27797 -0.000728346,-0.000673228 9.05512e-005,-0.00023622 -0.000385827,-0.000547244l-0.000248031 0.000165354c-0.00721654,-0.00470472 -0.0134843,-0.0103189 -0.0187559,-0.0165906 -0.194035,-0.198461 -0.549583,-0.34426 -0.958213,-0.414713 -0.351311,-0.0605709 -0.739039,-0.0645433 -1.09616,0.00212598 -0.351831,0.065689 -0.672902,0.199724 -0.896961,0.415484 -0.153689,0.148004 -0.262008,0.335685 -0.302992,0.567634z"/><path class="fil0" d="M3.18746 6.39333l1.76584 0c0.112429,0 0.214709,-0.0460551 0.288906,-0.120252 0.0741969,-0.0742008 0.120256,-0.176476 0.120256,-0.288906l0 -0.609965 -2.58417 0 0 0.609965c0,0.112429 0.0460591,0.214705 0.120256,0.288906 0.0742008,0.0741969 0.176476,0.120252 0.288906,0.120252z"/></g></g><rect class="fil1" width="7.66666" height="7.66666"/><text x="0" y="22.66666" fill="#000000" font-size="5px" font-weight="bold" font-family="'Helvetica Neue', Helvetica, Arial-Unicode, Arial, Sans-serif">Created by IYIKON</text><text x="0" y="27.66666" fill="#000000" font-size="5px" font-weight="bold" font-family="'Helvetica Neue', Helvetica, Arial-Unicode, Arial, Sans-serif">from the Noun Project</text></svg>