<?xml version="1.0" encoding="UTF-8" standalone="no"?>
<!DOCTYPE svg PUBLIC "-//W3C//DTD SVG 1.1//EN" "http://www.w3.org/Graphics/SVG/1.1/DTD/svg11.dtd" [
  <!ENTITY wattSymbol "P">
  <!ENTITY voltSymbol "U">
  <!ENTITY ohmSymbol "R">
  <!ENTITY ampereSymbol "I">
  <!ENTITY lightColor "white"> <!-- #0066ff -->
  <!ENTITY darkColor "black"> <!-- #ff55dd -->
  <!ENTITY lightTextColor "white">
  <!ENTITY darkTextColor "black">
  <!ENTITY lightLineColor "white">
  <!ENTITY darkLineColor "black">
  <!ENTITY ampereText "AMPERES">
  <!ENTITY currentText "CURRENT">
  <!ENTITY voltText "VOLTS">
  <!ENTITY emfText "ELECTROMOTIVE FORCE">
  <!ENTITY wattText "WATTS">
  <!ENTITY powerText "POWER">
  <!ENTITY ohmText "OHMS">
  <!ENTITY resistanceText "RESISTANCE">
]>
<!-- Created with Inkscape (http://www.inkscape.org/) -->

<svg
   xmlns:svg="http://www.w3.org/2000/svg"
   xmlns="http://www.w3.org/2000/svg"
   version="1.1"
   width="556.08002"
   height="561.34497"
   id="svg">
  <defs
     id="defs4" />
  <g
     id="mainLayer"
     style="display:inline">
    <g
       transform="matrix(0.06861764,0,0,0.06827705,-421.85975,-740.13749)"
       id="ampereOuterCircle"
       style="fill:&lightColor;;fill-opacity:1;stroke:#000000;stroke-width:14.6098156;stroke-miterlimit:4;stroke-opacity:1;stroke-dasharray:none;visibility:visible;display:inline">
      <path
         d="m 10200,14951 3899,0 -5,-207 -16,-207 -27,-205 -37,-204 -48,-201 -58,-199 -68,-195 -78,-191 -88,-187 -97,-182 -107,-177 -115,-171 -125,-164 -132,-157 -141,-151 -148,-142 -155,-135 -162,-126 -168,-117 -174,-109 -179,-98 -184,-90 -189,-79 -192,-69 -196,-59 -199,-48 -200,-38 -203,-27 -203,-17 -204,-5 -1,3957 z"
         id="path8788"
         style="fill:&lightColor;;fill-opacity:1;stroke:#000000;stroke-width:14.6098156;stroke-miterlimit:4;stroke-opacity:1;stroke-dasharray:none" />
    </g>
    <g
       transform="matrix(0.06861764,0,0,0.06827705,-421.85975,-740.13749)"
       id="ohmOuterCircle"
       style="fill:&darkColor;;fill-opacity:1;stroke:#000000;stroke-width:14.6098156;stroke-miterlimit:4;stroke-opacity:1;stroke-dasharray:none;visibility:visible;display:inline">
      <path
         d="m 10200,14951 1,3957 204,-5 203,-17 203,-27 200,-38 199,-48 196,-59 192,-69 189,-79 184,-90 179,-98 174,-109 168,-117 162,-126 155,-135 148,-142 141,-151 132,-157 125,-164 115,-171 107,-177 97,-182 88,-187 78,-191 68,-195 58,-199 48,-201 37,-204 27,-205 16,-207 5,-207 -3899,0 z"
         id="path8796"
         style="fill:&darkColor;;fill-opacity:1;stroke:#000000;stroke-width:14.6098156;stroke-miterlimit:4;stroke-opacity:1;stroke-dasharray:none" />
    </g>
    <g
       transform="matrix(0.06861764,0,0,0.06827705,-421.85975,-740.13749)"
       id="voltOuterCircle"
       style="fill:&lightColor;;fill-opacity:1;stroke:#000000;stroke-width:14.6098156;stroke-miterlimit:4;stroke-opacity:1;stroke-dasharray:none;visibility:visible;display:inline">
      <path
         d="m 10200,14951 -3899,0 5,200 15,200 25,199 35,198 45,195 54,193 64,189 73,187 83,182 91,178 100,172 109,168 117,161 125,156 132,149 140,141 147,135 153,126 159,119 165,110 170,102 176,93 179,84 184,74 187,65 190,55 192,45 194,36 196,25 197,15 198,5 -1,-3957 z"
         id="path8804"
         style="fill:&lightColor;;fill-opacity:1;stroke:#000000;stroke-width:14.6098156;stroke-miterlimit:4;stroke-opacity:1;stroke-dasharray:none" />
    </g>
    <g
       transform="matrix(0.06861764,0,0,0.06827705,-421.85975,-740.13749)"
       id="wattOuterCircle"
       style="fill:&darkColor;;fill-opacity:1;stroke:#000000;stroke-width:14.6098156;stroke-miterlimit:4;stroke-opacity:1;stroke-dasharray:none;visibility:visible;display:inline">
      <path
         d="m 10200,14951 1,-3957 -198,5 -197,15 -196,25 -194,36 -192,45 -190,55 -187,65 -184,74 -179,84 -176,93 -170,102 -165,110 -159,119 -153,126 -147,135 -140,141 -132,149 -125,156 -117,161 -109,168 -100,172 -91,178 -83,182 -73,187 -64,189 -54,193 -45,195 -35,198 -25,199 -15,200 -5,200 3899,0 z"
         id="path8812"
         style="fill:&darkColor;;fill-opacity:1;stroke:#000000;stroke-width:14.6098156;stroke-miterlimit:4;stroke-opacity:1;stroke-dasharray:none" />
    </g>
    <g
       transform="translate(-35.92425,-35.134291)"
       id="ampereMiddleCircle"
       style="fill:&darkColor;;fill-opacity:1;display:inline">
      <g
         transform="matrix(0.05952844,0,0,0.05885389,-317.03685,-564.11165)"
         id="g18360"
         style="fill:&darkColor;;fill-opacity:1;stroke:&lightLineColor;;stroke-width:16.89468765;stroke-miterlimit:4;stroke-opacity:1;stroke-dasharray:none;visibility:visible">
        <path
           d="m 10600,14951 1930,-3438 -118,-66 -120,-61 -123,-57 -124,-53 -125,-48 -128,-44 -128,-40 -130,-35 -132,-30 -132,-26 -133,-21 -133,-17 -134,-12 -135,-7 -134,-2 -1,3957 z"
           id="path18362"
           style="fill:&darkColor;;fill-opacity:1;stroke:&lightLineColor;;stroke-miterlimit:4;stroke-opacity:1;stroke-dasharray:none" />
      </g>
      <g
         transform="matrix(0.05952844,0,0,0.05885389,-317.03685,-564.11165)"
         id="g18368"
         style="fill:&darkColor;;fill-opacity:1;stroke:&lightLineColor;;stroke-width:16.89468765;stroke-miterlimit:4;stroke-opacity:1;stroke-dasharray:none;visibility:visible">
        <path
           d="m 10600,14951 3364,-2000 -71,-118 -74,-115 -79,-113 -83,-110 -86,-106 -90,-104 -93,-100 -97,-97 -100,-94 -103,-89 -106,-87 -109,-82 -112,-78 -114,-75 -117,-70 -1930,3438 z"
           id="path18370"
           style="fill:&darkColor;;fill-opacity:1;stroke:&lightLineColor;;stroke-width:16.89468765;stroke-miterlimit:4;stroke-opacity:1;stroke-dasharray:none" />
      </g>
      <g
         transform="matrix(0.05952844,0,0,0.05885389,-317.03685,-564.11165)"
         id="g18376"
         style="fill:&darkColor;;fill-opacity:1;stroke:&lightLineColor;;stroke-width:16.89468765;stroke-miterlimit:4;stroke-opacity:1;stroke-dasharray:none;visibility:visible">
        <path
           d="m 10600,14951 3899,0 -2,-140 -8,-139 -12,-140 -17,-138 -22,-138 -26,-138 -32,-136 -36,-135 -40,-133 -46,-132 -50,-130 -54,-129 -59,-126 -63,-124 -68,-122 -3364,2000 z"
           id="path18378"
           style="fill:&darkColor;;fill-opacity:1;stroke:&lightLineColor;;stroke-width:16.89468765;stroke-miterlimit:4;stroke-opacity:1;stroke-dasharray:none" />
      </g>
    </g>
    <g
       transform="translate(-35.92425,-35.134291)"
       id="ohmMiddleCircle"
       style="fill:&lightColor;;fill-opacity:1;stroke:#000000;stroke-opacity:1;display:inline">
      <path
         d="m 313.96469,315.81279 200.25364,117.76664 3.98841,-7.18018 3.80982,-7.29788 3.45265,-7.41559 3.27406,-7.59215 2.97642,-7.65101 2.67878,-7.76871 2.44067,-7.88642 2.14302,-7.94528 1.90491,-8.00413 1.54774,-8.06298 1.30963,-8.12184 1.01198,-8.18069 0.71434,-8.18069 0.47623,-8.23954 0.11906,-8.23955 -232.10136,0 z"
         id="path18386"
         style="fill:&lightColor;;fill-opacity:1;stroke:&darkLineColor;;stroke-width:1;stroke-miterlimit:4;stroke-opacity:1;stroke-dasharray:none;visibility:visible" />
      <g
         transform="matrix(0.05952844,0,0,0.05885389,-317.03685,-564.11165)"
         id="g18392"
         style="fill:&lightColor;;fill-opacity:1;stroke:&darkLineColor;;stroke-width:28.22507286;stroke-miterlimit:4;stroke-opacity:1;stroke-dasharray:none;visibility:visible">
        <path
           d="m 10600,14951 1930,3438 117,-70 114,-74 112,-79 109,-82 106,-86 103,-90 100,-94 97,-97 93,-100 90,-103 86,-107 83,-110 78,-112 75,-115 71,-118 -3364,-2001 z"
           id="path18394"
           style="fill:&lightColor;;fill-opacity:1;stroke:&darkLineColor;;stroke-width:16.89468765;stroke-miterlimit:4;stroke-opacity:1;stroke-dasharray:none" />
      </g>
      <g
         transform="matrix(0.05952844,0,0,0.05885389,-317.03685,-564.11165)"
         id="g18400"
         style="fill:&lightColor;;fill-opacity:1;stroke:&darkLineColor;;stroke-width:16.89468765;stroke-miterlimit:4;stroke-opacity:1;stroke-dasharray:none;visibility:visible">
        <path
           d="m 10600,14951 1,3957 134,-2 135,-7 134,-12 133,-17 133,-21 132,-26 132,-30 130,-35 128,-40 128,-44 125,-48 124,-53 123,-57 120,-61 118,-66 -1930,-3438 z"
           id="path18402"
           style="fill:&lightColor;;fill-opacity:1;stroke:&darkLineColor;;stroke-width:16.89468765;stroke-miterlimit:4;stroke-opacity:1;stroke-dasharray:none" />
      </g>
    </g>
    <g
       transform="translate(-35.92425,-35.134291)"
       id="voltMiddleCircle"
       style="fill:&darkColor;;fill-opacity:1;display:inline">
      <path
         d="m 313.96461,315.81286 -114.77083,202.39853 7.02436,3.88435 7.14341,3.59009 7.26247,3.35467 7.38153,3.11926 7.50058,2.82499 7.56011,2.58957 7.67917,2.2953 7.7387,2.05988 7.79822,1.82448 7.91729,1.47134 7.91728,1.29479 7.91728,0.94166 7.97681,0.70625 7.97681,0.41197 8.03634,0.11771 -0.0595,-232.88484 z"
         id="path18410"
         style="fill:&darkColor;;fill-opacity:1;stroke:&lightLineColor;;stroke-width:1;stroke-miterlimit:4;stroke-opacity:1;stroke-dasharray:none;visibility:visible" />
      <path
         d="m 313.96461,315.81286 -200.19414,117.82549 4.22652,6.94476 4.4051,6.76819 4.70275,6.59164 4.94086,6.47393 5.11945,6.29736 5.35756,6.06195 5.53614,5.88539 5.77426,5.70883 5.95284,5.53227 6.13143,5.29685 6.31002,5.06143 6.4886,4.82602 6.66718,4.5906 6.84577,4.41404 6.96483,4.11978 114.77083,-202.39853 z"
         id="path18418"
         style="fill:&darkColor;;fill-opacity:1;stroke:&lightLineColor;;stroke-width:1;stroke-miterlimit:4;stroke-opacity:1;stroke-dasharray:none;visibility:visible" />
      <path
         d="m 313.96461,315.81286 -232.101384,0 0.119057,8.23954 0.476228,8.23955 0.714341,8.18069 1.011984,8.18069 1.309625,8.12184 1.54774,8.06298 1.90491,8.06298 2.143024,7.94528 2.440666,7.82757 2.678779,7.76871 2.976422,7.70986 3.274068,7.5333 3.51217,7.47444 3.7503,7.29788 4.04793,7.18018 200.19414,-117.82549 z"
         id="path18426"
         style="fill:&darkColor;;fill-opacity:1;stroke:&lightLineColor;;stroke-width:1;stroke-miterlimit:4;stroke-opacity:1;stroke-dasharray:none;visibility:visible" />
    </g>
    <g
       transform="translate(-35.92425,-35.134291)"
       id="wattMiddleCircle"
       style="fill:&lightColor;;fill-opacity:1;display:inline">
      <g
         transform="matrix(0.05952844,0,0,0.05885389,-317.03685,-564.11165)"
         id="g18432"
         style="fill:&lightColor;;fill-opacity:1;stroke:&darkLineColor;;stroke-width:16.89468765;stroke-miterlimit:4;stroke-opacity:1;stroke-dasharray:none;visibility:visible">
        <path
           d="m 10600,14951 -3364,-2001 -67,122 -63,124 -59,126 -55,129 -50,130 -45,132 -41,134 -36,135 -32,136 -26,137 -22,138 -17,139 -12,139 -8,140 -2,140 3899,0 z"
           id="path18434"
           style="fill:&lightColor;;fill-opacity:1;stroke:&darkLineColor;;stroke-miterlimit:4;stroke-opacity:1;stroke-dasharray:none" />
      </g>
      <g
         transform="matrix(0.05952844,0,0,0.05885389,-317.03685,-564.11165)"
         id="g18440"
         style="fill:&lightColor;;fill-opacity:1;stroke:&darkLineColor;;stroke-width:16.89468765;stroke-miterlimit:4;stroke-opacity:1;stroke-dasharray:none;visibility:visible">
        <path
           d="m 10600,14951 -1928,-3439 -117,70 -115,75 -112,78 -109,82 -106,87 -103,89 -100,94 -97,97 -94,100 -89,104 -87,106 -82,110 -79,113 -75,115 -71,118 3364,2001 z"
           id="path18442"
           style="fill:&lightColor;;fill-opacity:1;stroke:&darkLineColor;;stroke-width:16.89468765;stroke-miterlimit:4;stroke-opacity:1;stroke-dasharray:none" />
      </g>
      <g
         transform="matrix(0.05952844,0,0,0.05885389,-317.03685,-564.11165)"
         id="g18448"
         style="fill:&lightColor;;fill-opacity:1;stroke:&darkLineColor;;stroke-width:16.89468765;stroke-miterlimit:4;stroke-opacity:1;stroke-dasharray:none;visibility:visible">
        <path
           d="m 10600,14951 1,-3957 -135,2 -134,7 -134,12 -133,16 -133,22 -133,25 -131,31 -130,35 -129,39 -127,44 -126,48 -124,53 -122,57 -120,61 -118,66 1928,3439 z"
           id="path18450"
           style="fill:&lightColor;;fill-opacity:1;stroke:&darkLineColor;;stroke-width:16.89468765;stroke-miterlimit:4;stroke-opacity:1;stroke-dasharray:none" />
      </g>
    </g>
    <g
       transform="matrix(-0.01948397,0,0,0.01939053,476.8239,-9.2313907)"
       id="wattInnerCircle"
       style="fill:&darkColor;;fill-opacity:1;stroke:#000000;stroke-width:51.44775391;stroke-miterlimit:4;stroke-opacity:1;stroke-dasharray:none;visibility:visible;display:inline">
      <path
         d="m 10200,14951 3899,0 -5,-207 -16,-207 -27,-205 -37,-204 -48,-201 -58,-199 -68,-195 -78,-191 -88,-187 -97,-182 -107,-177 -115,-171 -125,-164 -132,-157 -141,-151 -148,-142 -155,-135 -162,-126 -168,-117 -174,-109 -179,-98 -184,-90 -189,-79 -192,-69 -196,-59 -199,-48 -200,-38 -203,-27 -203,-17 -204,-5 -1,3957 z"
         id="path17908"
         style="fill:&darkColor;;fill-opacity:1;stroke:#000000;stroke-width:51.44775391;stroke-miterlimit:4;stroke-opacity:1;stroke-dasharray:none" />
    </g>
    <g
       transform="matrix(-0.01948397,0,0,0.01939053,476.8239,-9.2313907)"
       id="voltInnerCircle"
       style="fill:#2979f9;fill-opacity:1;stroke:#000000;stroke-width:51.44775391;stroke-miterlimit:4;stroke-opacity:1;stroke-dasharray:none;visibility:visible;display:inline">
      <path
         d="m 10200,14951 1,3957 204,-5 203,-17 203,-27 200,-38 199,-48 196,-59 192,-69 189,-79 184,-90 179,-98 174,-109 168,-117 162,-126 155,-135 148,-142 141,-151 132,-157 125,-164 115,-171 107,-177 97,-182 88,-187 78,-191 68,-195 58,-199 48,-201 37,-204 27,-205 16,-207 5,-207 -3899,0 z"
         id="path17912"
         style="fill:&lightColor;;fill-opacity:1;stroke:#000000;stroke-width:51.44775391;stroke-miterlimit:4;stroke-opacity:1;stroke-dasharray:none" />
    </g>
    <g
       transform="matrix(-0.01948397,0,0,0.01939053,476.8239,-9.2313907)"
       id="ohmInnerCircle"
       style="fill:&darkColor;;fill-opacity:1;stroke:#000000;stroke-width:51.44775391;stroke-miterlimit:4;stroke-opacity:1;stroke-dasharray:none;visibility:visible;display:inline">
      <path
         d="m 10200,14951 -3899,0 5,200 15,200 25,199 35,198 45,195 54,193 64,189 73,187 83,182 91,178 100,172 109,168 117,161 125,156 132,149 140,141 147,135 153,126 159,119 165,110 170,102 176,93 179,84 184,74 187,65 190,55 192,45 194,36 196,25 197,15 198,5 -1,-3957 z"
         id="path17916"
         style="fill:&darkColor;;fill-opacity:1;stroke:#000000;stroke-width:51.44775391;stroke-miterlimit:4;stroke-opacity:1;stroke-dasharray:none" />
    </g>
    <g
       transform="matrix(-0.01948397,0,0,0.01939053,476.8239,-9.2313907)"
       id="ampereInnerCircle"
       style="fill:&lightColor;;fill-opacity:1;stroke:#000000;stroke-width:51.44775391;stroke-miterlimit:4;stroke-opacity:1;stroke-dasharray:none;visibility:visible;display:inline">
      <path
         d="m 10200,14951 1,-3957 -198,5 -197,15 -196,25 -194,36 -192,45 -190,55 -187,65 -184,74 -179,84 -176,93 -170,102 -165,110 -159,119 -153,126 -147,135 -140,141 -132,149 -125,156 -117,161 -109,168 -100,172 -91,178 -83,182 -73,187 -64,189 -54,193 -45,195 -35,198 -25,199 -15,200 -5,200 3899,0 z"
         id="path17920"
         style="fill:&lightColor;;fill-opacity:1;stroke:#000000;stroke-width:51.44775391;stroke-miterlimit:4;stroke-opacity:1;stroke-dasharray:none" />
    </g>
  </g>
  <g
     id="layer1"
     style="display:inline">
    <text
       x="247.18436"
       y="270.39813"
       transform="scale(1.0137497,0.9864367)"
       id="powerSymbol"
       xml:space="preserve"
       style="font-size:43.99998093px;font-style:normal;font-variant:normal;font-weight:bold;font-stretch:normal;text-align:center;line-height:125%;writing-mode:lr-tb;text-anchor:middle;fill:&lightTextColor;;fill-opacity:1;stroke:none;display:inline;font-family:FreeSans"><tspan
         x="247.18436"
         y="270.39813"
         id="tspan1312">&wattSymbol;</tspan></text>
    <text
       x="248.38748"
       y="331.37152"
       transform="scale(1.0137497,0.9864367)"
       id="voltageSymbol"
       xml:space="preserve"
       style="font-size:43.99998474px;font-style:normal;font-variant:normal;font-weight:bold;font-stretch:normal;text-align:center;line-height:125%;writing-mode:lr-tb;text-anchor:middle;fill:&darkTextColor;;fill-opacity:1;stroke:none;display:inline;font-family:FreeSans"><tspan
         x="248.38748"
         y="331.37152"
         id="tspan1316">&voltSymbol;</tspan></text>
    <text
       x="295.05777"
       y="270.39807"
       transform="scale(1.0137497,0.9864367)"
       id="currentSymbol"
       xml:space="preserve"
       style="font-size:43.99998856px;font-style:normal;font-variant:normal;font-weight:bold;font-stretch:normal;text-align:start;line-height:125%;writing-mode:lr-tb;text-anchor:start;fill:&darkTextColor;;fill-opacity:1;stroke:none;display:inline;font-family:FreeSans"><tspan
         x="295.05777"
         y="270.39807"
         id="tspan1320">&ampereSymbol;</tspan></text>
    <text
       x="303.03699"
       y="332.38379"
       transform="scale(1.0137497,0.9864367)"
       id="resistanceSymbol"
       xml:space="preserve"
       style="font-size:43.99999619px;font-style:normal;font-variant:normal;font-weight:bold;font-stretch:normal;text-align:center;line-height:125%;writing-mode:lr-tb;text-anchor:middle;fill:&lightTextColor;;fill-opacity:1;stroke:none;display:inline;font-family:FreeSans"><tspan
         x="303.03699"
         y="332.38379"
         id="tspan1324">&ohmSymbol;</tspan></text>
    <text
       x="459.68048"
       y="330.49896"
       transform="scale(1.0137497,0.9864367)"
       id="text1326"
       xml:space="preserve"
       style="font-size:44.84405136px;font-style:normal;font-variant:normal;font-weight:bold;font-stretch:normal;text-align:center;line-height:100%;writing-mode:lr-tb;text-anchor:middle;fill:&darkTextColor;;fill-opacity:1;stroke:none;display:inline;font-family:FreeSans"><tspan
         x="459.68048"
         y="330.49896"
         id="tspan1336"
         style="font-size:44.84405136px;font-style:normal;font-variant:normal;font-weight:bold;font-stretch:normal;text-align:center;line-height:100%;writing-mode:lr-tb;text-anchor:middle;font-family:FreeSans">&voltSymbol;</tspan><tspan
         x="459.68048"
         y="375.34302"
         id="tspan1338"
         style="font-size:44.84405136px;font-style:normal;font-variant:normal;font-weight:bold;font-stretch:normal;text-align:center;line-height:100%;writing-mode:lr-tb;text-anchor:middle;font-family:FreeSans">&ampereSymbol;</tspan></text>
    <path
       d="m 447.49513,332.28424 c 37.3471,0 37.3471,0 37.3471,0"
       id="path1584"
       style="fill:none;stroke:&darkTextColor;;stroke-width:2;stroke-linecap:butt;stroke-linejoin:miter;stroke-miterlimit:4;stroke-opacity:1;stroke-dasharray:none;display:inline" />
    <path
       d="m 384.69229,411.41415 c 37.3471,0 37.3471,0 37.3471,0"
       id="path2459"
       style="fill:none;stroke:&darkTextColor;;stroke-width:2;stroke-linecap:butt;stroke-linejoin:miter;stroke-miterlimit:4;stroke-opacity:1;stroke-dasharray:none;display:inline" />
    <path
       d="m 300.90014,457.3761 c 37.3471,0 37.3471,0 37.3471,0"
       id="path2461"
       style="fill:none;stroke:&darkTextColor;;stroke-width:2;stroke-linecap:butt;stroke-linejoin:miter;stroke-miterlimit:4;stroke-opacity:1;stroke-dasharray:none;display:inline" />
    <path
       d="m 129.1522,409.97789 c 37.3471,0 37.3471,0 37.3471,0"
       id="path2463"
       style="fill:none;stroke:&lightTextColor;;stroke-width:2;stroke-linecap:butt;stroke-linejoin:miter;stroke-miterlimit:4;stroke-opacity:1;stroke-dasharray:none;display:inline" />
    <path
       d="m 218.9022,114.97789 c 37.3471,0 37.3471,0 37.3471,0"
       id="path2465"
       style="fill:none;stroke:&darkTextColor;;stroke-width:2;stroke-linecap:butt;stroke-linejoin:miter;stroke-miterlimit:4;stroke-opacity:1;stroke-dasharray:none;display:inline" />
    <path
       d="m 299.9022,116.72789 c 37.3471,0 37.3471,0 37.3471,0"
       id="path2467"
       style="fill:none;stroke:&lightTextColor;;stroke-width:2;stroke-linecap:butt;stroke-linejoin:miter;stroke-miterlimit:4;stroke-opacity:1;stroke-dasharray:none;display:inline" />
    <path
       d="m 381.9022,153.22789 c 37.3471,0 37.3471,0 37.3471,0"
       id="path2469"
       style="fill:none;stroke:&lightTextColor;;stroke-width:2;stroke-linecap:butt;stroke-linejoin:miter;stroke-miterlimit:4;stroke-opacity:1;stroke-dasharray:none;display:inline" />
    <path
       d="m 440.9022,241.22789 c 37.3471,0 37.3471,0 37.3471,0"
       id="path2471"
       style="fill:none;stroke:&lightTextColor;;stroke-width:2;stroke-linecap:butt;stroke-linejoin:miter;stroke-miterlimit:4;stroke-opacity:1;stroke-dasharray:none;display:inline" />
    <text
       x="320.82214"
       y="452.51825"
       id="text2483"
       xml:space="preserve"
       style="font-size:44px;font-style:normal;font-variant:normal;font-weight:bold;font-stretch:normal;text-align:center;line-height:100%;writing-mode:lr-tb;text-anchor:middle;fill:&darkTextColor;;fill-opacity:1;stroke:none;display:inline;font-family:FreeSans"><tspan
         x="320.82214"
         y="452.51825"
         id="tspan2550">&wattSymbol;</tspan><tspan
         x="320.82214"
         y="496.51825"
         id="tspan2552">&ampereSymbol;²</tspan></text>
    <text
       x="406.50259"
       y="404.66559"
       id="text2538"
       xml:space="preserve"
       style="font-size:44px;font-style:normal;font-variant:normal;font-weight:bold;font-stretch:normal;text-align:center;line-height:100%;writing-mode:lr-tb;text-anchor:middle;fill:&darkTextColor;;fill-opacity:1;stroke:none;display:inline;font-family:FreeSans"><tspan
         x="406.50259"
         y="404.66559"
         id="tspan2540">&voltSymbol;²</tspan><tspan
         x="406.50259"
         y="448.66559"
         id="tspan2542">&wattSymbol;</tspan></text>
    <text
       x="401.40817"
       y="148.26587"
       id="text2630"
       xml:space="preserve"
       style="font-size:44px;font-style:normal;font-variant:normal;font-weight:bold;font-stretch:normal;text-align:center;line-height:100%;writing-mode:lr-tb;text-anchor:middle;fill:&lightTextColor;;fill-opacity:1;stroke:none;display:inline;font-family:FreeSans"><tspan
         x="401.40817"
         y="148.26587"
         id="tspan2634">&wattSymbol;</tspan><tspan
         x="401.40817"
         y="192.26587"
         id="tspan2638">&voltSymbol;</tspan></text>
    <text
       x="461.21136"
       y="234.15552"
       id="text2564"
       xml:space="preserve"
       style="font-size:44px;font-style:normal;font-variant:normal;font-weight:bold;font-stretch:normal;text-align:center;line-height:100%;writing-mode:lr-tb;text-anchor:middle;fill:&lightTextColor;;fill-opacity:1;stroke:none;display:inline;font-family:FreeSans"><tspan
         x="461.21136"
         y="234.15552"
         id="tspan2566">&wattSymbol;</tspan><tspan
         x="461.21136"
         y="278.15552"
         id="tspan2568">&ohmSymbol;</tspan></text>
    <text
       x="317.66867"
       y="111.11896"
       id="text2574"
       xml:space="preserve"
       style="font-size:44px;font-style:normal;font-variant:normal;font-weight:bold;font-stretch:normal;text-align:center;line-height:100%;writing-mode:lr-tb;text-anchor:middle;fill:&lightTextColor;;fill-opacity:1;stroke:none;display:inline;font-family:FreeSans"><tspan
         x="317.66867"
         y="111.11896"
         id="tspan2576">&voltSymbol;</tspan><tspan
         x="317.66867"
         y="155.11896"
         id="tspan2578">&ohmSymbol;</tspan></text>
    <path
       d="m 481.61739,195.35485 0.042,2.06734 -42.708,-0.18267 -7.93801,76.12135 -10.60401,-38.23391 -4.13599,3.53874 -0.79201,-2.53866 6.51201,-5.61585 8.492,30.46405 6.88201,-65.87038"
       id="text2580"
       style="font-size:58.17984009px;font-style:normal;font-variant:normal;font-weight:bold;font-stretch:normal;text-align:center;line-height:100%;writing-mode:lr-tb;text-anchor:middle;fill:&lightTextColor;;fill-opacity:1;stroke:none;display:inline;font-family:FreeSans" />
    <text
       x="239.42212"
       y="109.76587"
       id="text2594"
       xml:space="preserve"
       style="font-size:44px;font-style:normal;font-variant:normal;font-weight:bold;font-stretch:normal;text-align:center;line-height:100%;writing-mode:lr-tb;text-anchor:middle;fill:&darkTextColor;;fill-opacity:1;stroke:none;display:inline;font-family:FreeSans"><tspan
         x="239.42212"
         y="109.76587"
         id="tspan2596">&voltSymbol;²</tspan><tspan
         x="239.42212"
         y="153.76587"
         id="tspan2598">&ohmSymbol;</tspan></text>
    <text
       x="154.67212"
       y="171.26587"
       id="text2600"
       xml:space="preserve"
       style="font-size:44px;font-style:normal;font-variant:normal;font-weight:bold;font-stretch:normal;text-align:center;line-height:100%;writing-mode:lr-tb;text-anchor:middle;fill:&darkTextColor;;fill-opacity:1;stroke:none;display:inline;font-family:FreeSans"><tspan
         x="154.67212"
         y="171.26587"
         id="tspan2604">&ohmSymbol;&ampereSymbol;²</tspan></text>
    <text
       x="112.19419"
       y="251.01587"
       id="text2608"
       xml:space="preserve"
       style="font-size:44px;font-style:normal;font-variant:normal;font-weight:bold;font-stretch:normal;text-align:center;line-height:100%;writing-mode:lr-tb;text-anchor:middle;fill:&darkTextColor;;fill-opacity:1;stroke:none;display:inline;font-family:FreeSans"><tspan
         x="112.19419"
         y="251.01587"
         id="tspan2610">&voltSymbol;&ampereSymbol;</tspan></text>
    <text
       x="123.56932"
       y="343.00989"
       id="text2612"
       xml:space="preserve"
       style="font-size:44px;font-style:normal;font-variant:normal;font-weight:bold;font-stretch:normal;text-align:center;line-height:100%;writing-mode:lr-tb;text-anchor:middle;fill:&lightTextColor;;fill-opacity:1;stroke:none;display:inline;font-family:FreeSans"><tspan
         x="123.56932"
         y="343.00989"
         id="tspan2614">&ohmSymbol;&wattSymbol;</tspan></text>
    <text
       x="148.15819"
       y="404.01587"
       id="text2616"
       xml:space="preserve"
       style="font-size:44px;font-style:normal;font-variant:normal;font-weight:bold;font-stretch:normal;text-align:center;line-height:100%;writing-mode:lr-tb;text-anchor:middle;fill:&lightTextColor;;fill-opacity:1;stroke:none;display:inline;font-family:FreeSans"><tspan
         x="148.15819"
         y="404.01587"
         id="tspan2618">&wattSymbol;</tspan><tspan
         x="148.15819"
         y="448.01587"
         id="tspan2620">&ampereSymbol;</tspan></text>
    <text
       x="227.17303"
       y="477.01587"
       id="text2622"
       xml:space="preserve"
       style="font-size:44px;font-style:normal;font-variant:normal;font-weight:bold;font-stretch:normal;text-align:center;line-height:100%;writing-mode:lr-tb;text-anchor:middle;fill:&lightTextColor;;fill-opacity:1;stroke:none;display:inline;font-family:FreeSans"><tspan
         x="227.17303"
         y="477.01587"
         id="tspan2626">&ohmSymbol;&ampereSymbol;</tspan></text>
    <path
       d="m 151.36238,303.6624 -0.0517,1.01625 -61.30175,0.14125 -5.188,39.911 -10.604,-21.868 -4.136,2.024 -0.792,-1.452 6.512,-3.212 8.492,17.424 4.632,-33.922"
       id="text45831"
       style="font-size:44px;font-style:normal;font-variant:normal;font-weight:bold;font-stretch:normal;text-align:center;line-height:100%;writing-mode:lr-tb;text-anchor:middle;fill:&lightTextColor;;fill-opacity:1;stroke:none;display:inline;font-family:FreeSans" />
    <g
       transform="translate(-35.92425,-35.134291)"
       id="voltText"
       style="font-size:20.13646317px;font-style:normal;font-variant:normal;font-weight:normal;font-stretch:normal;text-align:start;line-height:125%;writing-mode:lr-tb;text-anchor:start;fill:&darkTextColor;;fill-opacity:1;stroke:none;display:inline;font-family:FreeSans">
      <path
         d="m 59.259055,363.66048 -0.577661,-2.49123 13.181145,-8.1414 0.686825,2.96201 -10.032336,5.67493 11.492407,0.62182 0.686825,2.96202 -15.437205,-1.58815"
         id="path3013"
         style="font-weight:bold;line-height:125%;font-family:FreeSans" />
      <path
         d="m 62.57566,370.19187 c 1.0501,-1.61906 2.663678,-2.72301 4.840741,-3.31184 2.177049,-0.58883 4.127103,-0.44875 5.850169,0.42026 1.726545,0.88196 2.864962,2.34019 3.415256,4.37471 0.553767,2.04746 0.30736,3.88721 -0.739221,5.51924 -1.033654,1.6285 -2.677877,2.74769 -4.932674,3.35757 -2.099314,0.56779 -4.016972,0.41894 -5.752978,-0.44655 -1.719553,-0.85605 -2.859723,-2.32077 -3.420514,-4.39414 -0.55729,-2.06044 -0.310883,-3.90019 0.739221,-5.51925 m 11.623358,2.17552 c -0.318965,-1.17925 -1.02838,-2.00256 -2.128247,-2.46993 -1.086932,-0.47089 -2.375516,-0.5048 -3.865754,-0.10173 -1.490255,0.40307 -2.592545,1.08364 -3.306875,2.04172 -0.70138,0.95456 -0.892592,2.02147 -0.573637,3.20071 0.315442,1.16628 1.016625,1.98486 2.103551,2.45575 1.090419,0.48384 2.361317,0.52948 3.812698,0.13694 1.529112,-0.4136 2.650841,-1.09943 3.365188,-2.05749 0.717826,-0.94513 0.915517,-2.01378 0.593076,-3.20597"
         id="path3015"
         style="font-weight:bold;line-height:125%;font-family:FreeSans" />
      <path
         d="m 79.740604,383.14872 -11.612321,3.61643 2.089624,6.70977 -2.403212,0.74843 -2.987744,-9.59362 14.015533,-4.36486 0.89812,2.88385"
         id="path3017"
         style="font-weight:bold;line-height:125%;font-family:FreeSans" />
      <path
         d="m 81.810929,397.40177 -11.481509,4.01241 -0.996462,-2.85136 11.481509,-4.01242 -1.46812,-4.20102 2.376141,-0.83038 3.879556,11.10132 -2.37614,0.83039 -1.414975,-4.04894"
         id="path3019"
         style="font-weight:bold;line-height:125%;font-family:FreeSans" />
      <path
         d="m 85.534784,412.60715 -1.0345,-2.62243 c 1.384183,-0.66149 1.719133,-1.8976 1.00485,-3.70832 -0.285733,-0.7243 -0.668435,-1.23716 -1.148107,-1.53859 -0.467209,-0.30635 -0.956807,-0.35854 -1.468794,-0.15657 -0.499522,0.19705 -0.802726,0.52591 -0.909611,0.98658 -0.09442,0.45574 -0.04448,1.22253 0.149824,2.30037 l 0.430282,2.29798 c 0.247778,1.35978 0.185269,2.44512 -0.187529,3.25603 -0.360331,0.80596 -1.077465,1.42077 -2.151405,1.84443 -1.386151,0.5468 -2.667171,0.48211 -3.843065,-0.19407 -1.163415,-0.68112 -2.092417,-1.90206 -2.787007,-3.66283 -0.689668,-1.74829 -0.839502,-3.26217 -0.449501,-4.54164 0.394924,-1.26698 1.305679,-2.23236 2.732269,-2.89614 l 1.078836,2.73482 c -0.717079,0.3406 -1.165726,0.84949 -1.345943,1.52669 -0.180225,0.6772 -0.08314,1.49033 0.291254,2.43941 0.334977,0.84916 0.760869,1.45322 1.277677,1.81217 0.521724,0.37142 1.069808,0.44383 1.644252,0.21724 0.549455,-0.21676 0.897683,-0.57782 1.044686,-1.08316 0.146987,-0.50535 0.123166,-1.2608 -0.07146,-2.26635 l -0.379074,-2.05841 c -0.284571,-1.4896 -0.261643,-2.6387 0.06878,-3.4473 0.330411,-0.8086 1.026351,-1.42227 2.087821,-1.841 1.336182,-0.5271 2.543765,-0.48395 3.622755,0.12945 1.096376,0.62096 1.967237,1.74939 2.612583,3.38529 0.187179,0.47454 0.335766,0.94266 0.44576,1.40436 0.114887,0.47419 0.170961,1.00045 0.168221,1.57878 0.0097,0.5734 -0.07009,1.10276 -0.239406,1.58806 -0.156864,0.48037 -0.463219,0.94757 -0.919068,1.40159 -0.438466,0.46158 -1.013593,0.83276 -1.725382,1.11356"
         id="path3021"
         style="font-weight:bold;line-height:125%;font-family:FreeSans" />
      <path
         d="m 86.315053,423.11083 -4.553178,2.1473 3.693357,7.83146 -1.493442,0.70432 -4.492152,-9.52525 13.277065,-6.26153 4.337546,9.19742 -1.493442,0.70432 -3.538751,-7.50364 -4.243561,2.00128 3.409913,7.23045 -1.493443,0.70431 -3.409912,-7.23044"
         id="path3023"
         style="font-size:20.13646317px;font-style:normal;font-variant:normal;font-weight:normal;font-stretch:normal;text-align:start;line-height:125%;writing-mode:lr-tb;text-anchor:start;font-family:FreeSans" />
      <path
         d="m 99.062605,431.0161 -11.521935,6.08123 3.383686,6.41097 -1.460277,0.77073 -4.257803,-8.06714 12.98221,-6.85196 0.874119,1.65617"
         id="path3025"
         style="font-size:20.13646317px;font-style:normal;font-variant:normal;font-weight:normal;font-stretch:normal;text-align:start;line-height:125%;writing-mode:lr-tb;text-anchor:start;font-family:FreeSans" />
      <path
         d="m 97.300939,444.5013 -4.340299,2.55032 4.386549,7.46532 -1.423618,0.8365 -5.335267,-9.0799 12.656316,-7.43673 5.15164,8.7674 -1.42362,0.83651 -4.20292,-7.15282 -4.045163,2.3769 4.049903,6.89239 -1.42361,0.83651 -4.049911,-6.8924"
         id="path3027"
         style="font-size:20.13646317px;font-style:normal;font-variant:normal;font-weight:normal;font-stretch:normal;text-align:start;line-height:125%;writing-mode:lr-tb;text-anchor:start;font-family:FreeSans" />
      <path
         d="m 102.58666,452.49706 c 0.56005,-0.36995 1.1441,-0.69141 1.75215,-0.96436 0.61544,-0.26175 1.30878,-0.45429 2.08003,-0.57762 0.77122,-0.12333 1.50475,-0.13326 2.20057,-0.0298 0.7144,0.10728 1.4392,0.40076 2.17439,0.88044 0.74257,0.49089 1.39502,1.16197 1.95738,2.01325 1.76099,2.66586 1.46765,5.12011 -0.88003,7.36276 l -1.05438,-1.59615 c 0.75528,-0.75636 1.17747,-1.54204 1.26656,-2.35706 0.0891,-0.81502 -0.18826,-1.70977 -0.83197,-2.68427 -0.78433,-1.18731 -1.8595,-1.82853 -3.22553,-1.92367 -1.35864,-0.0839 -2.82204,0.39205 -4.39018,1.42794 -1.53455,1.01369 -2.51869,2.17863 -2.95243,3.49483 -0.42254,1.3088 -0.23055,2.57366 0.57596,3.79459 0.66592,1.00809 1.45649,1.59598 2.37172,1.76368 0.9264,0.16028 2.04616,-0.0565 3.35927,-0.65041 l 1.06548,1.61296 c -3.48129,1.76872 -6.20972,1.15774 -8.185298,-1.83294 -0.554942,-0.84008 -0.914374,-1.68864 -1.078295,-2.54568 -0.145327,-0.85325 -0.132754,-1.62577 0.03772,-2.31758 0.177867,-0.6806 0.46924,-1.3477 0.874119,-2.00128 0.423474,-0.64978 0.870734,-1.20266 1.341804,-1.65863 0.47845,-0.44477 0.9921,-0.84843 1.54096,-1.211"
         id="path3029"
         style="font-size:20.13646317px;font-style:normal;font-variant:normal;font-weight:normal;font-stretch:normal;text-align:start;line-height:125%;writing-mode:lr-tb;text-anchor:start;font-family:FreeSans" />
      <path
         d="m 118.38775,465.09694 -10.47101,7.75205 -1.11428,-1.50511 10.47101,-7.75204 -2.87556,-3.88415 1.32708,-0.98249 6.85343,9.25722 -1.32708,0.98249 -2.86359,-3.86797"
         id="path3031"
         style="font-size:20.13646317px;font-style:normal;font-variant:normal;font-weight:normal;font-stretch:normal;text-align:start;line-height:125%;writing-mode:lr-tb;text-anchor:start;font-family:FreeSans" />
      <path
         d="m 123.45143,480.70414 c 0.12995,0.45051 0.18691,0.86569 0.17089,1.24553 -0.007,0.39015 -0.0965,0.73464 -0.26709,1.03347 -0.16204,0.30913 -0.3386,0.56927 -0.52969,0.78041 -0.19111,0.21112 -0.43638,0.44108 -0.73581,0.68987 -0.0929,0.0772 -0.23147,0.18356 -0.41557,0.31908 -0.17554,0.14583 -0.30461,0.25306 -0.38721,0.3217 -0.42336,0.35172 -0.74098,0.69415 -0.95288,1.02729 -0.21192,0.33313 -0.29928,0.71114 -0.26208,1.13403 l -0.35624,0.29596 -1.45409,-1.75018 c 0.30339,-0.60114 0.83198,-1.21483 1.58575,-1.84107 l 1.00675,-0.83643 c 0.6918,-0.57478 1.07336,-1.14485 1.14468,-1.71023 0.0816,-0.57396 -0.14349,-1.18104 -0.67536,-1.82122 l -3.08834,-3.71721 -4.86335,4.04058 -1.19673,-1.44042 11.29102,-9.38083 4.32367,5.20409 c 0.91791,1.10484 1.35806,2.17029 1.32046,3.19637 -0.0187,1.02781 -0.51339,1.94492 -1.48397,2.75132 -0.64021,0.53188 -1.28779,0.83429 -1.94274,0.90723 -0.65499,0.0729 -1.39901,-0.0768 -2.23207,-0.44934 m 2.72525,-1.79297 c 0.74343,-0.61767 1.09155,-1.2385 1.04436,-1.8625 -0.0472,-0.624 -0.3582,-1.2819 -0.93296,-1.97372 l -2.89532,-3.48488 -3.88758,3.22989 2.89532,3.48488 c 0.63481,0.76409 1.25295,1.19299 1.85441,1.2867 0.61,0.10403 1.2506,-0.12276 1.92177,-0.68037"
         id="path3033"
         style="font-size:20.13646317px;font-style:normal;font-variant:normal;font-weight:normal;font-stretch:normal;text-align:start;line-height:125%;writing-mode:lr-tb;text-anchor:start;font-family:FreeSans" />
      <path
         d="m 135.56668,494.07489 c -1.58096,1.49335 -3.33601,2.26477 -5.26515,2.31428 -1.92916,0.0495 -3.63119,-0.70647 -5.1061,-2.26789 -1.45649,-1.54191 -2.11947,-3.27012 -1.98896,-5.18465 0.14027,-1.92374 1.04479,-3.67378 2.71357,-5.2501 1.66876,-1.57631 3.46257,-2.37512 5.38144,-2.39643 1.9286,-0.0305 3.61653,0.7203 5.06381,2.25244 1.4749,1.56142 2.13762,3.29913 1.98814,5.21311 -0.14029,1.92375 -1.06921,3.69683 -2.78675,5.31924 m -0.40173,-9.39851 c -1.06933,-1.13203 -2.33623,-1.66192 -3.8007,-1.5897 -1.45474,0.063 -2.84082,0.71676 -4.15826,1.96122 -1.31746,1.24446 -2.05393,2.59569 -2.20942,4.05369 -0.13652,1.45853 0.32988,2.75381 1.3992,3.88585 1.06931,1.13202 2.33133,1.66653 3.78606,1.60353 1.46393,-0.0533 2.83999,-0.6883 4.12818,-1.9051 1.34671,-1.27212 2.09782,-2.63718 2.25333,-4.09517 0.15547,-1.45799 -0.31065,-2.76277 -1.39839,-3.91432"
         id="path3035"
         style="font-size:20.13646317px;font-style:normal;font-variant:normal;font-weight:normal;font-stretch:normal;text-align:start;line-height:125%;writing-mode:lr-tb;text-anchor:start;font-family:FreeSans" />
      <path
         d="m 137.8054,505.88169 -1.45019,-1.33834 5.28102,-11.86837 -8.34417,9.04146 -1.3022,-1.20178 9.95564,-10.7876 1.90891,1.76169 -5.47559,12.34643 11.80906,-6.50141 1.90891,1.76169 -9.95564,10.78761 -1.3022,-1.20178 8.34416,-9.04146 -11.37771,6.24186"
         id="path3037"
         style="font-size:20.13646317px;font-style:normal;font-variant:normal;font-weight:normal;font-stretch:normal;text-align:start;line-height:125%;writing-mode:lr-tb;text-anchor:start;font-family:FreeSans" />
      <path
         d="m 159.33691,514.72074 c -1.36707,1.69134 -3.0032,2.69052 -4.9084,2.99754 -1.90522,0.30701 -3.69305,-0.21457 -5.36351,-1.56475 -1.64958,-1.3333 -2.53771,-2.95734 -2.66437,-4.87213 -0.11822,-1.92522 0.54416,-3.78049 1.98717,-5.5658 1.443,-1.7853 3.11388,-2.8168 5.01267,-3.09451 1.9072,-0.28812 3.68037,0.23024 5.31953,1.55509 1.67044,1.35019 2.55956,2.98367 2.66737,4.90046 0.1182,1.92522 -0.56528,3.80659 -2.05046,5.6441 m -1.65486,-9.26039 c -1.2111,-0.97887 -2.53748,-1.3346 -3.97914,-1.0672 -1.43325,0.25698 -2.71947,1.09019 -3.85867,2.49964 -1.13922,1.40945 -1.6884,2.84702 -1.64753,4.31272 0.0597,1.46369 0.69515,2.68497 1.90624,3.66386 1.21108,0.97887 2.53324,1.33982 3.96648,1.08286 1.44367,-0.24854 2.72245,-1.06187 3.83636,-2.44 1.16451,-1.44077 1.72635,-2.89401 1.6855,-4.3597 -0.0409,-1.46569 -0.67729,-2.69642 -1.90924,-3.69218"
         id="path3039"
         style="font-size:20.13646317px;font-style:normal;font-variant:normal;font-weight:normal;font-stretch:normal;text-align:start;line-height:125%;writing-mode:lr-tb;text-anchor:start;font-family:FreeSans" />
      <path
         d="m 168.24203,513.78324 -7.62636,10.56291 -1.51831,-1.09621 7.62635,-10.56292 -3.91824,-2.82894 0.96656,-1.33873 9.33846,6.74231 -0.96655,1.33873 -3.90191,-2.81715"
         id="path3041"
         style="font-size:20.13646317px;font-style:normal;font-variant:normal;font-weight:normal;font-stretch:normal;text-align:start;line-height:125%;writing-mode:lr-tb;text-anchor:start;font-family:FreeSans" />
      <path
         d="m 176.27138,517.31425 -8.17518,12.19237 -1.57213,-1.05414 8.17518,-12.19236 1.57213,1.05413"
         id="path3043"
         style="font-size:20.13646317px;font-style:normal;font-variant:normal;font-weight:normal;font-stretch:normal;text-align:start;line-height:125%;writing-mode:lr-tb;text-anchor:start;font-family:FreeSans" />
      <path
         d="m 176.16195,534.65955 -1.71122,-1.06136 3.25389,-15.25559 1.71122,1.06136 -2.88656,12.82956 10.00526,-8.41431 1.69411,1.05074 -12.0667,9.7896"
         id="path3045"
         style="font-size:20.13646317px;font-style:normal;font-variant:normal;font-weight:normal;font-stretch:normal;text-align:start;line-height:125%;writing-mode:lr-tb;text-anchor:start;font-family:FreeSans" />
      <path
         d="m 187.35744,533.53206 -2.44533,4.40031 7.56854,4.20595 -0.80207,1.4433 -9.20545,-5.11561 7.13056,-12.8313 8.88863,4.93954 -0.80207,1.44331 -7.25171,-4.02989 -2.27904,4.10109 6.98769,3.88316 -0.80206,1.44331 -6.98769,-3.88317"
         id="path3047"
         style="font-size:20.13646317px;font-style:normal;font-variant:normal;font-weight:normal;font-stretch:normal;text-align:start;line-height:125%;writing-mode:lr-tb;text-anchor:start;font-family:FreeSans" />
      <path
         d="m 203.83914,542.21808 -2.89038,6.02819 -1.68862,-0.80966 6.34664,-13.23659 8.87887,4.25722 -0.71389,1.48889 -7.19025,-3.44756 -2.02849,4.23062 6.3187,3.02967 -0.71388,1.48889 -6.3187,-3.02967"
         id="path3049"
         style="font-size:20.13646317px;font-style:normal;font-variant:normal;font-weight:normal;font-stretch:normal;text-align:start;line-height:125%;writing-mode:lr-tb;text-anchor:start;font-family:FreeSans" />
      <path
         d="m 224.71447,551.11619 c -0.85801,1.99834 -2.16244,3.40323 -3.91332,4.21468 -1.75091,0.81145 -3.61318,0.79348 -5.58684,-0.0539 -1.949,-0.8368 -3.24371,-2.15967 -3.88414,-3.96862 -0.63514,-1.82128 -0.49988,-3.7866 0.40577,-5.89596 0.90565,-2.10935 2.23479,-3.55477 3.98743,-4.33626 1.75793,-0.79381 3.60522,-0.77497 5.54189,0.0565 1.97365,0.84741 3.27188,2.1791 3.8947,3.99508 0.63512,1.82129 0.48662,3.81744 -0.44549,5.98847 m -4.10064,-8.46629 c -1.43092,-0.61435 -2.80407,-0.59763 -4.11946,0.0502 -1.31011,0.63548 -2.32266,1.78586 -3.03764,3.45113 -0.71499,1.66528 -0.85437,3.19786 -0.41814,4.59772 0.45386,1.39283 1.39624,2.39643 2.82715,3.01079 1.4309,0.61436 2.80141,0.6038 4.11152,-0.0317 1.32242,-0.63018 2.33319,-1.7594 3.03231,-3.38768 0.73086,-1.70228 0.87818,-3.25335 0.44197,-4.65323 -0.43625,-1.39986 -1.38215,-2.41227 -2.83771,-3.03723"
         id="path3051"
         style="font-size:20.13646317px;font-style:normal;font-variant:normal;font-weight:normal;font-stretch:normal;text-align:start;line-height:125%;writing-mode:lr-tb;text-anchor:start;font-family:FreeSans" />
      <path
         d="m 235.23901,554.97188 c 0.33468,0.32839 0.58844,0.66189 0.76127,1.00051 0.18535,0.34339 0.27722,0.68713 0.27562,1.03122 0.0109,0.34886 -0.0149,0.6622 -0.0775,0.94001 -0.0626,0.27781 -0.16308,0.59865 -0.30147,0.96252 -0.043,0.11293 -0.11129,0.27366 -0.20495,0.48219 -0.0812,0.2133 -0.1408,0.37015 -0.17897,0.47053 -0.19569,0.51443 -0.30388,0.96879 -0.32457,1.36307 -0.0207,0.39428 0.0891,0.76638 0.32943,1.11632 l -0.16465,0.43289 -2.12677,-0.80894 c -0.0314,-0.67263 0.12707,-1.46692 0.47547,-2.38287 l 0.46532,-1.22337 c 0.31975,-0.84067 0.37167,-1.52469 0.15575,-2.05206 -0.21116,-0.53991 -0.7057,-0.95782 -1.48363,-1.25372 l -4.51703,-1.7181 -2.24785,5.90979 -1.75035,-0.66577 5.21873,-13.72049 6.32385,2.40534 c 1.34255,0.51067 2.24973,1.22197 2.72155,2.13391 0.4891,0.90418 0.50935,1.94599 0.0608,3.12543 -0.29591,0.77794 -0.71108,1.35969 -1.24552,1.74527 -0.53446,0.38559 -1.25597,0.62103 -2.16451,0.70632 m 1.49133,-2.90132 c 0.34361,-0.9034 0.34145,-1.61517 -0.006,-2.13531 -0.34795,-0.52012 -0.94226,-0.94007 -1.78291,-1.25984 l -4.23472,-1.61072 -1.79685,4.72407 4.23472,1.61072 c 0.92849,0.35317 1.67763,0.42268 2.24743,0.20852 0.58232,-0.20938 1.02859,-0.72186 1.33881,-1.53744"
         id="path3053"
         style="font-size:20.13646317px;font-style:normal;font-variant:normal;font-weight:normal;font-stretch:normal;text-align:start;line-height:125%;writing-mode:lr-tb;text-anchor:start;font-family:FreeSans" />
      <path
         d="m 239.20847,556.53037 c 0.21519,-0.63578 0.47909,-1.24799 0.79171,-1.83664 0.32532,-0.58433 0.75463,-1.16181 1.28791,-1.73246 0.53327,-0.57063 1.10636,-1.02859 1.71927,-1.37388 0.62991,-0.35368 1.38229,-0.56672 2.25714,-0.63911 0.88755,-0.0681 1.81452,0.0615 2.78092,0.38852 3.02633,1.02432 4.30073,3.14218 3.82321,6.35357 l -1.81199,-0.61329 c 0.13224,-1.06068 -0.0165,-1.94012 -0.44631,-2.63832 -0.4298,-0.69818 -1.19783,-1.2345 -2.30408,-1.60894 -1.34788,-0.45619 -2.5903,-0.30273 -3.72728,0.4604 -1.12427,0.76745 -1.98767,2.04127 -2.5902,3.82146 -0.58963,1.74205 -0.65184,3.26579 -0.18664,4.5712 0.4695,1.2927 1.39725,2.17361 2.78327,2.64273 1.1444,0.38734 2.12938,0.36641 2.95494,-0.0628 0.82983,-0.44192 1.58094,-1.30023 2.25333,-2.57493 l 1.83106,0.61975 c -1.66343,3.53281 -4.19269,4.72466 -7.58777,3.57554 -0.95369,-0.32279 -1.7582,-0.77224 -2.41354,-1.34836 -0.63833,-0.58453 -1.10245,-1.20223 -1.39237,-1.85308 -0.2772,-0.64654 -0.45649,-1.35207 -0.53787,-2.11658 -0.0644,-0.77291 -0.0505,-1.48392 0.0417,-2.13301 0.10485,-0.64478 0.26272,-1.27871 0.47361,-1.90178"
         id="path3055"
         style="font-size:20.13646317px;font-style:normal;font-variant:normal;font-weight:normal;font-stretch:normal;text-align:start;line-height:125%;writing-mode:lr-tb;text-anchor:start;font-family:FreeSans" />
      <path
         d="m 255.24475,562.32905 -1.45605,4.81895 8.28858,2.50441 -0.47758,1.58061 -10.08123,-3.04606 4.24585,-14.05204 9.73427,2.94122 -0.47759,1.58062 -7.94162,-2.39958 -1.35704,4.49126 7.65248,2.31221 -0.47758,1.58061 -7.65249,-2.31221"
         id="path3057"
         style="font-size:20.13646317px;font-style:normal;font-variant:normal;font-weight:normal;font-stretch:normal;text-align:start;line-height:125%;writing-mode:lr-tb;text-anchor:start;font-family:FreeSans" />
    </g>
    <g
       transform="translate(-35.92425,-35.134291)"
       id="wattText"
       style="font-size:19.99998665px;font-style:normal;font-variant:normal;font-weight:normal;font-stretch:normal;text-align:start;line-height:125%;writing-mode:lr-tb;text-anchor:start;fill:&lightTextColor;;fill-opacity:1;stroke:none;display:inline;font-family:FreeSans">
      <path
         d="m 102.84557,194.49402 -1.37326,2.32468 -11.039123,-3.68723 8.587587,7.83722 -1.373265,2.32468 -14.648769,-3.86834 1.6174,-2.73796 10.551511,3.60825 -8.252564,-7.49993 1.505505,-2.54854 10.619592,3.53232 -8.310474,-7.44123 1.617401,-2.73795 10.498459,10.89403"
         id="path2963"
         style="font-size:19.99998665px;font-style:normal;font-variant:normal;font-weight:bold;font-stretch:normal;text-align:start;line-height:125%;writing-mode:lr-tb;text-anchor:start;font-family:FreeSans" />
      <path
         d="m 107.39513,181.86402 -2.96334,4.58587 1.93744,2.41875 -1.66078,2.5701 -9.434403,-12.26379 1.801884,-2.78847 14.981169,3.67998 -1.67163,2.5869 -2.99034,-0.78934 m -2.5448,-0.66812 -5.818641,-1.49778 3.756251,4.68941 2.06239,-3.19163"
         id="path2965"
         style="font-size:19.99998665px;font-style:normal;font-variant:normal;font-weight:bold;font-stretch:normal;text-align:start;line-height:125%;writing-mode:lr-tb;text-anchor:start;font-family:FreeSans" />
      <path
         d="m 106.38109,167.15538 9.89177,6.9339 -1.72199,2.45657 -9.89178,-6.9339 -2.53707,3.61934 -2.04714,-1.435 6.70431,-9.56423 2.04713,1.435 -2.44523,3.48832"
         id="path2967"
         style="font-size:19.99998665px;font-style:normal;font-variant:normal;font-weight:bold;font-stretch:normal;text-align:start;line-height:125%;writing-mode:lr-tb;text-anchor:start;font-family:FreeSans" />
      <path
         d="m 113.91338,156.9438 9.61808,7.30882 -1.81511,2.3886 -9.61807,-7.30883 -2.67426,3.5192 -1.99049,-1.51259 7.06681,-9.29959 1.99049,1.51259 -2.57745,3.3918"
         id="path2969"
         style="font-size:19.99998665px;font-style:normal;font-variant:normal;font-weight:bold;font-stretch:normal;text-align:start;line-height:125%;writing-mode:lr-tb;text-anchor:start;font-family:FreeSans" />
      <path
         d="m 125.75566,145.43299 -1.79206,2.15141 c -1.23617,-0.89086 -2.47294,-0.59355 -3.71031,0.89193 -0.49495,0.59421 -0.75943,1.17214 -0.79346,1.73379 -0.0443,0.55313 0.14362,1.00464 0.56365,1.3545 0.4098,0.34136 0.84088,0.44882 1.29324,0.32238 0.44213,-0.13495 1.0865,-0.54395 1.9331,-1.22701 l 1.79732,-1.47024 c 1.06679,-0.86404 2.04233,-1.32689 2.92662,-1.38855 0.87405,-0.0702 1.7516,0.26169 2.63265,0.99556 1.13716,0.94724 1.69138,2.09433 1.66266,3.44128 -0.039,1.33842 -0.6601,2.72989 -1.86333,4.17439 -1.1947,1.43428 -2.44245,2.28641 -3.74324,2.55642 -1.29227,0.25977 -2.56758,-0.0737 -3.82596,-1.00043 l 1.86886,-2.2436 c 0.63857,0.46251 1.29586,0.61089 1.97186,0.44514 0.676,-0.16573 1.33827,-0.6379 1.98683,-1.41651 0.58028,-0.69664 0.90364,-1.35567 0.97009,-1.9771 0.075,-0.63165 -0.12316,-1.14375 -0.59442,-1.53631 -0.45077,-0.37547 -0.93136,-0.50682 -1.44177,-0.39404 -0.51042,0.11279 -1.15735,0.49362 -1.9408,1.1425 l -1.61298,1.31144 c -1.16237,0.95797 -2.1746,1.4857 -3.03669,1.58319 -0.86209,0.0975 -1.72854,-0.21643 -2.59935,-0.9418 -1.09619,-0.91308 -1.63417,-1.98591 -1.61396,-3.2185 0.0185,-1.25133 0.58673,-2.54804 1.70462,-3.89012 0.32428,-0.38929 0.66137,-0.74189 1.01126,-1.0578 0.35844,-0.32613 0.79029,-0.62583 1.29554,-0.8991 0.49502,-0.28177 0.99433,-0.46454 1.49792,-0.54831 0.49335,-0.0923 1.04648,-0.048 1.65938,0.1328 0.6112,0.16206 1.20878,0.4863 1.79273,0.97269"
         id="path2971"
         style="font-size:19.99998665px;font-style:normal;font-variant:normal;font-weight:bold;font-stretch:normal;text-align:start;line-height:125%;writing-mode:lr-tb;text-anchor:start;font-family:FreeSans" />
      <path
         d="m 139.23332,130.82142 c 0.88984,0.8636 1.34281,1.83273 1.3589,2.9074 0.0158,1.05584 -0.39879,2.0191 -1.2438,2.8898 l -3.18969,3.28668 4.43487,4.30399 -1.29538,1.33476 -10.46283,-10.15407 4.19256,-4.32005 c 1.00287,-1.03335 2.04151,-1.5675 3.1159,-1.60247 1.07412,-0.0538 2.10394,0.39754 3.08947,1.35396 m -4.25148,7.94172 2.70219,-2.78435 c 0.62215,-0.64106 0.94235,-1.29646 0.96061,-1.96622 0.0275,-0.6793 -0.24573,-1.29753 -0.81982,-1.85469 -0.57409,-0.55714 -1.20023,-0.81178 -1.87841,-0.76392 -0.6689,0.0383 -1.31442,0.37801 -1.93657,1.01906 l -2.70219,2.78435 3.67419,3.56577"
         id="path2973" />
      <path
         d="m 153.26567,122.30654 c 1.45371,1.59761 2.18729,3.35474 2.20074,5.27139 0.0134,1.91667 -0.76878,3.59288 -2.34665,5.02864 -1.55815,1.41782 -3.28663,2.0442 -5.18543,1.87915 -1.90778,-0.1749 -3.62891,-1.10553 -5.16338,-2.79189 -1.53447,-1.68634 -2.29452,-3.48247 -2.28016,-5.38839 0.005,-1.91576 0.78223,-3.57807 2.33052,-4.98693 1.57787,-1.43575 3.31577,-2.06169 5.21368,-1.87782 1.90778,0.17492 3.65134,1.13021 5.23068,2.86585 m -9.34062,0.22496 c -1.14395,1.04094 -1.69362,2.28923 -1.64901,3.74486 0.0357,1.44579 0.65919,2.83434 1.87062,4.16567 1.21142,1.33133 2.53963,2.0877 3.98461,2.26909 1.44587,0.16257 2.74079,-0.27661 3.88475,-1.31754 1.14395,-1.04092 1.69811,-2.28428 1.66246,-3.73007 -0.0258,-1.45474 -0.63093,-2.83299 -1.81543,-4.13475 -1.23836,-1.3609 -2.58002,-2.13206 -4.025,-2.31347 -1.44499,-0.18139 -2.74932,0.25735 -3.913,1.31621"
         id="path2975" />
      <path
         d="m 169.67368,118.3908 -1.61204,1.25016 -9.99676,-7.40774 4.7655,11.46463 -1.61204,1.25016 -11.89039,-9.22943 1.64366,-1.27468 9.42103,7.67706 -4.69552,-11.34174 1.58044,-1.22565 9.87935,7.32162 -5.13804,-10.99856 1.64366,-1.27467 6.01115,13.78884"
         id="path2977" />
      <path
         d="m 172.26859,108.47918 2.76762,4.16416 7.16236,-4.76031 0.90778,1.36584 -8.71142,5.78987 -8.07039,-12.1427 8.41161,-5.590593 0.90778,1.365844 -6.86254,4.561039 2.57942,3.881 6.61269,-4.39498 0.90778,1.36584 -6.61269,4.39499"
         id="path2979" />
      <path
         d="m 189.60645,96.997273 c 0.46234,-0.05587 0.87844,-0.0458 1.24831,0.03022 0.38134,0.06927 0.70496,0.211258 0.97085,0.425963 0.27737,0.207957 0.50438,0.422373 0.68105,0.643251 0.17665,0.220899 0.36317,0.497887 0.55955,0.830967 0.0609,0.103382 0.14322,0.256083 0.24686,0.458105 0.1151,0.195268 0.19975,0.338841 0.25393,0.430719 0.27762,0.470922 0.56292,0.836712 0.8559,1.097362 0.29297,0.26067 0.64971,0.40635 1.07024,0.43703 l 0.23362,0.39626 -1.94685,1.14776 c -0.54122,-0.39291 -1.05898,-1.0086 -1.55329,-1.84708 l -0.66021,-1.119863 c -0.4537,-0.769542 -0.95205,-1.234161 -1.49505,-1.39386 -0.54978,-0.171164 -1.18073,-0.04684 -1.89284,0.372987 l -4.13491,2.437726 3.18937,5.40984 -1.60228,0.94462 -7.40461,-12.559771 5.78887,-3.412825 c 1.22898,-0.724531 2.34349,-0.986903 3.34353,-0.787117 1.00475,0.181564 1.82539,0.812171 2.46191,1.891824 0.41983,0.712137 0.6135,1.395073 0.58102,2.048808 -0.0325,0.653762 -0.29749,1.359454 -0.79497,2.117077 m -1.3252,-2.956661 c -0.48755,-0.826965 -1.04097,-1.266856 -1.66025,-1.319674 -0.6193,-0.05279 -1.31372,0.147658 -2.08327,0.601332 l -3.87647,2.285374 2.54946,4.32442 3.87647,-2.285374 c 0.84995,-0.501078 1.36861,-1.039025 1.55599,-1.613843 0.19886,-0.581563 0.0782,-1.245641 -0.36193,-1.992235"
         id="path2981" />
    </g>
    <g
       transform="translate(-35.92425,-35.134291)"
       id="ampereText"
       style="font-size:19.99996376px;font-style:normal;font-variant:normal;font-weight:normal;font-stretch:normal;text-align:start;line-height:125%;writing-mode:lr-tb;text-anchor:start;fill:&darkTextColor;;fill-opacity:1;stroke:none;display:inline;font-family:FreeSans">
      <path
         d="m 402.71606,85.143588 -5.1135,-1.914046 -1.94845,2.409878 -2.86581,-1.072708 9.96241,-11.83885 3.10931,1.163853 -0.39098,15.421552 -2.88454,-1.079718 0.13156,-3.089961 m 0.10844,-2.628805 0.21875,-6.004333 -3.7776,4.672212 3.55885,1.332121"
         id="path2984"
         style="font-size:19.99996376px;font-style:normal;font-variant:normal;font-weight:bold;font-stretch:normal;text-align:start;line-height:125%;writing-mode:lr-tb;text-anchor:start;font-family:FreeSans" />
      <path
         d="m 414.62464,81.032391 -4.87072,10.262809 -2.71024,-1.286281 6.25132,-13.171809 4.04731,1.920846 -2.58861,11.611556 7.28637,-9.382002 4.08344,1.937997 -6.25132,13.171809 -2.71025,-1.286281 4.87071,-10.262809 -7.20153,9.156607 -2.71025,-1.286281 2.50377,-11.386161"
         id="path2986"
         style="font-size:19.99996376px;font-style:normal;font-variant:normal;font-weight:bold;font-stretch:normal;text-align:start;line-height:125%;writing-mode:lr-tb;text-anchor:start;font-family:FreeSans" />
      <path
         d="m 427.37783,94.346944 -2.54789,4.53301 -2.6152,-1.469935 7.14388,-12.709861 5.61396,3.155459 c 1.32502,0.744775 2.14677,1.650219 2.46526,2.716334 0.33007,1.07266 0.1358,2.248257 -0.58282,3.526795 -0.72518,1.290165 -1.65204,2.122818 -2.7806,2.49796 -1.12858,0.375141 -2.27401,0.236061 -3.43631,-0.417243 l -3.26028,-1.832519 m 1.22494,-2.179331 2.44085,1.371938 c 1.3599,0.764369 2.3959,0.513093 3.10801,-0.753828 0.36584,-0.650889 0.46842,-1.227976 0.30776,-1.731263 -0.14907,-0.496743 -0.57229,-0.941108 -1.26966,-1.333097 l -2.44085,-1.371939 -2.14611,3.818189"
         id="path2988"
         style="font-size:19.99996376px;font-style:normal;font-variant:normal;font-weight:bold;font-stretch:normal;text-align:start;line-height:125%;writing-mode:lr-tb;text-anchor:start;font-family:FreeSans" />
      <path
         d="m 439.76864,100.37776 -2.02797,3.18993 6.66679,4.23835 -1.34125,2.10975 -9.19849,-5.84785 7.82217,-12.304038 8.89469,5.654709 -1.34125,2.109746 -6.36299,-4.04521 -1.77045,2.784864 5.89041,3.744769 -1.34125,2.10975 -5.89041,-3.74477"
         id="path2990"
         style="font-size:19.99996376px;font-style:normal;font-variant:normal;font-weight:bold;font-stretch:normal;text-align:start;line-height:125%;writing-mode:lr-tb;text-anchor:start;font-family:FreeSans" />
      <path
         d="m 453.29887,114.06125 c 0.23188,-0.32593 0.41895,-0.57737 0.56122,-0.75433 0.14226,-0.17697 0.26363,-0.33607 0.36413,-0.4773 0.35554,-0.49976 0.4911,-0.94331 0.40669,-1.33064 -0.0767,-0.3982 -0.38123,-0.78667 -0.91357,-1.16541 l -2.80298,-1.9942 -3.35072,4.70967 -2.44447,-1.73913 8.45216,-11.880093 6.3719,4.533323 c 0.60839,0.43286 1.05644,0.90708 1.34417,1.42267 0.29856,0.52334 0.43668,1.03069 0.41438,1.52207 -0.0115,0.49911 -0.092,0.95728 -0.24155,1.3745 -0.14185,0.40636 -0.34416,0.79423 -0.60695,1.16362 -1.0203,1.43408 -2.38411,1.93651 -4.09141,1.50727 0.2083,0.3282 0.35602,0.58057 0.44316,0.7571 0.0948,0.16567 0.15492,0.38023 0.18023,0.64368 0.0361,0.27117 0.0296,0.4874 -0.0197,0.64869 -0.0384,0.16902 -0.1596,0.44282 -0.36347,0.82139 -0.19304,0.38631 -0.40392,0.75172 -0.63266,1.09624 -0.22876,0.34452 -0.57345,0.85201 -1.03407,1.52246 -0.32465,0.4563 -0.3827,0.9059 -0.17417,1.3488 l -0.31304,0.44001 -2.62372,-1.86667 c 0.0489,-0.39068 0.13888,-0.73572 0.27007,-1.03511 0.14204,-0.29166 0.41017,-0.71453 0.80438,-1.26861 m 4.86647,-6.01216 c 0.43283,-0.60839 0.57759,-1.11085 0.43426,-1.50738 -0.13563,-0.40738 -0.49677,-0.81977 -1.08342,-1.23717 l -2.94966,-2.09854 -2.20289,3.09632 2.94965,2.09854 c 0.5758,0.40967 1.07837,0.61177 1.50771,0.60631 0.44018,0.002 0.8883,-0.31708 1.34435,-0.95808"
         id="path2992"
         style="font-size:19.99996376px;font-style:normal;font-variant:normal;font-weight:bold;font-stretch:normal;text-align:start;line-height:125%;writing-mode:lr-tb;text-anchor:start;font-family:FreeSans" />
      <path
         d="m 463.05858,116.67734 -2.33571,2.97201 6.21132,4.88151 -1.54478,1.96561 -8.57006,-6.73525 9.00918,-11.46344 8.28701,6.51281 -1.54478,1.96561 -5.92828,-4.65907 -2.03912,2.59461 5.48799,4.31303 -1.54479,1.96561 -5.48798,-4.31304"
         id="path2994"
         style="font-size:19.99996376px;font-style:normal;font-variant:normal;font-weight:bold;font-stretch:normal;text-align:start;line-height:125%;writing-mode:lr-tb;text-anchor:start;font-family:FreeSans" />
      <path
         d="m 481.10654,126.6399 -2.12217,-1.82656 c 0.9107,-1.22162 0.63341,-2.46303 -0.83189,-3.72424 -0.58614,-0.50447 -1.15972,-0.77825 -1.72075,-0.82135 -0.55235,-0.0532 -1.00683,0.12738 -1.36343,0.5417 -0.34793,0.40423 -0.46233,0.83352 -0.34322,1.28787 0.12779,0.44425 0.52633,1.09513 1.19562,1.95265 l 1.44103,1.82083 c 0.84669,1.0806 1.29372,2.06349 1.3411,2.94867 0.056,0.87506 -0.28995,1.74714 -1.03796,2.61622 -0.96548,1.12172 -2.12137,1.65733 -3.46767,1.60686 -1.33762,-0.0606 -2.71887,-0.7041 -4.14375,-1.9305 -1.41479,-1.21771 -2.24667,-2.47906 -2.49563,-3.78404 -0.23886,-1.29629 0.11517,-2.56605 1.06209,-3.80929 l 2.21313,1.90484 c -0.47276,0.63102 -0.63174,1.28583 -0.47694,1.96442 0.1548,0.67858 0.61621,1.34839 1.38424,2.00944 0.68717,0.59145 1.3409,0.92542 1.96117,1.0019 0.63036,0.0852 1.1456,-0.10468 1.54571,-0.56953 0.3827,-0.44465 0.52179,-0.92306 0.41728,-1.43523 -0.10453,-0.51217 -0.47487,-1.16516 -1.11101,-1.95899 l -1.28522,-1.63395 c -0.93907,-1.17768 -1.45038,-2.1983 -1.53393,-3.06186 -0.0836,-0.86355 0.24432,-1.72481 0.98365,-2.5838 0.93067,-1.08129 2.01205,-1.60187 3.24414,-1.56176 1.25088,0.0387 2.53824,0.6278 3.86208,1.76722 0.384,0.33053 0.73111,0.67327 1.04133,1.02822 0.3203,0.36366 0.61298,0.80029 0.87806,1.30989 0.27373,0.49951 0.44842,1.0017 0.52405,1.50657 0.0843,0.49478 0.0311,1.04712 -0.15959,1.65702 -0.17191,0.6085 -0.50575,1.20076 -1.00152,1.77678"
         id="path2996"
         style="font-size:19.99996376px;font-style:normal;font-variant:normal;font-weight:bold;font-stretch:normal;text-align:start;line-height:125%;writing-mode:lr-tb;text-anchor:start;font-family:FreeSans" />
      <path
         d="m 485.19425,134.46923 c 0.46792,-0.47484 0.96916,-0.90751 1.50371,-1.298 0.54404,-0.38112 1.17803,-0.71106 1.90197,-0.9898 0.72393,-0.27873 1.43458,-0.43952 2.13198,-0.48236 0.71622,-0.043 1.48091,0.0928 2.29407,0.40743 0.82263,0.32396 1.59484,0.84156 2.31663,1.55281 2.26028,2.22735 2.48094,4.67238 0.66198,7.33509 l -1.35332,-1.3336 c 0.578,-0.8905 0.82632,-1.74087 0.74496,-2.55111 -0.0814,-0.81024 -0.5352,-1.62246 -1.36143,-2.43666 -1.0067,-0.99201 -2.18347,-1.3935 -3.53032,-1.20447 -1.33738,0.19839 -2.66116,0.96237 -3.97136,2.29195 -1.28213,1.3011 -1.99831,2.63575 -2.14854,4.00396 -0.14088,1.35871 0.30627,2.54811 1.34145,3.5682 0.85473,0.84227 1.74399,1.25059 2.66778,1.22495 0.93314,-0.0351 1.97644,-0.4765 3.12991,-1.32409 l 1.36758,1.34764 c -3.01805,2.4358 -5.79492,2.40434 -8.33062,-0.0944 -0.71229,-0.7019 -1.23635,-1.45232 -1.57221,-2.25125 -0.317,-0.79909 -0.46396,-1.55227 -0.44086,-2.25957 0.0326,-0.69793 0.17824,-1.40613 0.43696,-2.12458 0.27757,-0.71859 0.59822,-1.34792 0.96197,-1.88801 0.37323,-0.53073 0.78913,-1.02877 1.24771,-1.49413"
         id="path2998" />
      <path
         d="m 508.02084,147.3083 1.25604,1.37184 -7.55251,6.91497 c -1.08175,0.99042 -2.28887,1.39965 -3.62137,1.22769 -1.32351,-0.16214 -2.56151,-0.87258 -3.714,-2.13133 -1.1705,-1.27842 -1.77871,-2.57453 -1.82462,-3.88832 -0.0271,-1.31297 0.50517,-2.46917 1.59674,-3.4686 l 7.55251,-6.91497 1.25604,1.37184 -7.55251,6.91497 c -0.77689,0.71131 -1.13691,1.49289 -1.08008,2.34474 0.0757,0.85269 0.49617,1.69697 1.2615,2.53287 0.79234,0.86538 1.62012,1.35485 2.48335,1.46839 0.86321,0.11353 1.65868,-0.16284 2.3864,-0.82912 l 7.55251,-6.91497"
         id="path3000" />
      <path
         d="m 511.94645,163.38449 c 0.12656,0.44817 0.18082,0.86085 0.1628,1.23802 -0.01,0.38746 -0.0999,0.72911 -0.27103,1.02495 -0.16266,0.30614 -0.33947,0.56353 -0.53044,0.77216 -0.19099,0.20863 -0.43587,0.43566 -0.73465,0.68109 -0.0927,0.0762 -0.23092,0.18103 -0.41452,0.3146 -0.17517,0.14386 -0.30396,0.24965 -0.38637,0.31736 -0.42244,0.34697 -0.73982,0.68531 -0.95213,1.01501 -0.21233,0.32968 -0.3012,0.70463 -0.26662,1.12486 l -0.35546,0.29197 -1.43447,-1.74639 c 0.30468,-0.59537 0.83309,-1.20194 1.58523,-1.81973 l 1.00457,-0.82514 c 0.6903,-0.56702 1.07244,-1.1311 1.14643,-1.69224 0.0843,-0.56961 -0.13595,-1.17381 -0.66064,-1.81261 l -3.04667,-3.70914 -4.8528,3.98604 -1.18058,-1.43729 11.26654,-9.25423 4.26532,5.1928 c 0.90552,1.10245 1.33675,2.16311 1.29369,3.182 -0.0243,1.02073 -0.52073,1.92886 -1.48921,2.72438 -0.63881,0.5247 -1.28367,0.82144 -1.93459,0.89024 -0.65094,0.0688 -1.38908,-0.0841 -2.2144,-0.45871 m 2.71672,-1.76562 c 0.74181,-0.60933 1.09103,-1.22401 1.04764,-1.84403 -0.0434,-0.62002 -0.34864,-1.27519 -0.91564,-1.9655 l -2.85624,-3.47733 -3.87915,3.1863 2.85624,3.47733 c 0.62625,0.76243 1.23779,1.19186 1.83464,1.28828 0.60529,0.10672 1.24279,-0.11496 1.91251,-0.66505"
         id="path3002" />
      <path
         d="m 520.89602,175.25218 c 0.10075,0.45468 0.13135,0.86978 0.0918,1.2453 -0.0317,0.38628 -0.14142,0.72221 -0.32914,1.0078 -0.17988,0.29635 -0.37111,0.54321 -0.57368,0.7406 -0.2026,0.19737 -0.46005,0.41004 -0.77236,0.63801 -0.0969,0.0707 -0.24088,0.16754 -0.43182,0.2904 -0.18309,0.13362 -0.31772,0.23188 -0.40387,0.29477 -0.44157,0.32228 -0.77775,0.64193 -1.00855,0.95896 -0.23082,0.31702 -0.34097,0.68628 -0.33044,1.1078 l -0.37156,0.27119 -1.33236,-1.82549 c 0.33819,-0.57699 0.90039,-1.15239 1.68659,-1.7262 l 1.05006,-0.7664 c 0.72156,-0.52667 1.13531,-1.068 1.24123,-1.62399 0.11666,-0.56387 -0.0687,-1.17966 -0.55602,-1.84739 l -2.8298,-3.87713 -5.07258,3.70232 -1.09655,-1.50239 11.77679,-8.59551 3.96172,5.42798 c 0.84106,1.15237 1.211,2.23594 1.10981,3.25071 -0.0826,1.01767 -0.63007,1.89596 -1.64241,2.63485 -0.66775,0.48735 -1.32851,0.74678 -1.98229,0.77828 -0.65381,0.0315 -1.38201,-0.16333 -2.18458,-0.58447 m 2.81314,-1.60754 c 0.77541,-0.56596 1.15917,-1.15968 1.15127,-1.78117 -0.008,-0.62149 -0.27522,-1.29302 -0.80186,-2.01459 l -2.65294,-3.63482 -4.05483,2.9595 2.65294,3.63481 c 0.58166,0.79697 1.16768,1.26063 1.75805,1.39099 0.5982,0.14112 1.24732,-0.0438 1.94737,-0.55472"
         id="path3004" />
      <path
         d="m 524.84171,182.00945 -4.20637,2.70303 4.64921,7.23495 -1.37969,0.8866 -5.65473,-8.79973 12.26578,-7.88203 5.46011,8.49687 -1.37969,0.8866 -4.45459,-6.9321 -3.92034,2.51922 4.29241,6.67971 -1.37969,0.8866 -4.29241,-6.67972"
         id="path3006" />
      <path
         d="m 543.5424,197.97808 -12.7511,7.07001 -1.01831,-1.83657 6.68108,-12.32585 -10.33731,5.73165 -0.85345,-1.53922 12.7511,-7.07001 0.97952,1.76661 -6.72974,12.4443 10.42477,-5.78015 0.85344,1.53923"
         id="path3008" />
      <path
         d="m 546.23429,207.33184 -11.71955,5.48589 -0.78855,-1.68457 11.71956,-5.48589 -2.03495,-4.34729 1.48532,-0.69527 4.84997,10.36102 -1.48532,0.69528 -2.02648,-4.32917"
         id="path3010" />
    </g>
    <g
       transform="translate(-35.92425,-35.134291)"
       id="ohmText"
       style="font-size:19.99998283px;font-style:normal;font-variant:normal;font-weight:normal;font-stretch:normal;text-align:start;line-height:125%;writing-mode:lr-tb;text-anchor:start;fill:&lightTextColor;;fill-opacity:1;stroke:none;display:inline;font-family:FreeSans">
      <path
         d="m 415.27448,552.75973 c -1.76826,-0.7396 -3.13287,-2.1211 -4.09382,-4.14451 -0.96095,-2.02339 -1.16933,-3.95401 -0.62513,-5.79185 0.55624,-1.84353 1.77982,-3.21432 3.67074,-4.11237 1.90296,-0.90374 3.74459,-0.98867 5.5249,-0.25481 1.77459,0.72185 3.15951,2.1306 4.1548,4.22626 0.92662,1.95115 1.12069,3.85165 0.58223,5.70152 -0.53216,1.83211 -1.76176,3.20576 -3.68881,4.12095 -1.91501,0.90948 -3.75664,0.99441 -5.52491,0.25481 m 0.0681,-11.74485 c -1.09601,0.52053 -1.77503,1.35963 -2.03706,2.5173 -0.26774,1.14564 -0.0727,2.411 0.58508,3.79605 0.65779,1.38508 1.51809,2.34186 2.58092,2.87034 1.05709,0.51645 2.13365,0.51441 3.22966,-0.006 1.08396,-0.51479 1.75982,-1.345 2.02757,-2.49065 0.27979,-1.15135 0.0994,-2.40149 -0.54126,-3.75044 -0.67496,-1.42119 -1.54385,-2.39603 -2.60666,-2.92453 -1.05078,-0.5342 -2.1302,-0.53818 -3.23825,-0.012"
         id="path3060"
         style="font-size:19.99998283px;font-style:normal;font-variant:normal;font-weight:bold;font-stretch:normal;text-align:start;line-height:125%;writing-mode:lr-tb;text-anchor:start;font-family:FreeSans" />
      <path
         d="m 433.41254,538.15458 -5.09982,2.72032 3.11566,5.84098 -2.64697,1.41193 -6.86198,-12.86426 2.64696,-1.41193 2.56972,4.81748 5.08217,-2.71091 -2.56971,-4.81748 2.66461,-1.42134 6.86199,12.86426 -2.64697,1.41193 -3.11566,-5.84098"
         id="path3062"
         style="font-size:19.99998283px;font-style:normal;font-variant:normal;font-weight:bold;font-stretch:normal;text-align:start;line-height:125%;writing-mode:lr-tb;text-anchor:start;font-family:FreeSans" />
      <path
         d="m 438.19306,530.03567 5.86214,9.73061 -2.5697,1.5481 -7.52377,-12.48875 3.83743,-2.31183 8.24732,8.57385 -3.79317,-11.25723 3.87168,-2.33247 7.52377,12.48876 -2.56971,1.5481 -5.86213,-9.73061 3.65219,11.06197 -2.5697,1.5481 -8.10635,-8.3786"
         id="path3064"
         style="font-size:19.99998283px;font-style:normal;font-variant:normal;font-weight:bold;font-stretch:normal;text-align:start;line-height:125%;writing-mode:lr-tb;text-anchor:start;font-family:FreeSans" />
      <path
         d="m 458.97992,518.14785 -2.31729,1.57167 c -0.94147,-1.19807 -2.21222,-1.25452 -3.81226,-0.16933 -0.64001,0.43409 -1.05406,0.9163 -1.24214,1.44661 -0.19556,0.51931 -0.13991,1.00517 0.16693,1.45758 0.29937,0.4414 0.6839,0.66392 1.15359,0.66756 0.4622,-0.007 1.19457,-0.22214 2.19709,-0.64433 l 2.13392,-0.91564 c 1.26418,-0.53519 2.3297,-0.71009 3.19654,-0.52471 0.85934,0.17438 1.61083,0.73605 2.25448,1.68503 0.83073,1.22486 1.04597,2.4805 0.64574,3.76693 -0.40774,1.27541 -1.38955,2.44074 -2.94544,3.49599 -1.54486,1.04778 -2.97966,1.52148 -4.30438,1.42108 -1.31369,-0.10787 -2.44698,-0.78114 -3.39986,-2.01982 l 2.4166,-1.63902 c 0.4857,0.62111 1.07629,0.94554 1.77176,0.97328 0.69546,0.0277 1.46251,-0.24278 2.30116,-0.81158 0.75035,-0.50891 1.24342,-1.05276 1.47919,-1.63155 0.24679,-0.58627 0.19806,-1.1332 -0.1462,-1.6408 -0.32931,-0.48552 -0.75481,-0.7447 -1.2765,-0.77753 -0.5217,-0.0328 -1.24874,0.15418 -2.18112,0.56099 l -1.91283,0.81403 c -1.38203,0.59902 -2.50074,0.82612 -3.35616,0.6813 -0.85542,-0.1448 -1.6012,-0.68618 -2.23736,-1.62414 -0.80079,-1.1807 -1.02098,-2.3605 -0.66057,-3.53938 0.36398,-1.19738 1.26874,-2.28628 2.71428,-3.26672 0.41932,-0.28438 0.8408,-0.52996 1.26444,-0.73675 0.43467,-0.21424 0.93257,-0.38277 1.49371,-0.50559 0.55365,-0.13383 1.08403,-0.17134 1.59114,-0.11253 0.49962,0.0478 1.01892,0.24337 1.55788,0.58669 0.54251,0.32482 1.02706,0.80172 1.45366,1.43068"
         id="path3066"
         style="font-size:19.99998283px;font-style:normal;font-variant:normal;font-weight:bold;font-stretch:normal;text-align:start;line-height:125%;writing-mode:lr-tb;text-anchor:start;font-family:FreeSans" />
      <path
         d="m 474.10112,510.29269 c 0.4503,-0.1188 0.86385,-0.16594 1.24065,-0.14141 0.38724,0.0163 0.72728,0.1125 1.02013,0.28867 0.30328,0.16792 0.55758,0.34914 0.76289,0.54368 0.2053,0.19456 0.42807,0.44333 0.66831,0.7463 0.0746,0.094 0.17702,0.234 0.30741,0.41988 0.14082,0.17762 0.24437,0.30822 0.31064,0.39179 0.33964,0.42837 0.67245,0.75153 0.99844,0.9695 0.32597,0.21799 0.69933,0.31332 1.12009,0.28598 l 0.2858,0.36045 -1.77088,1.40413 c -0.59002,-0.31491 -1.1874,-0.85371 -1.79212,-1.61639 l -0.80768,-1.01865 c -0.55503,-0.69998 -1.11243,-1.0918 -1.67221,-1.17546 -0.56808,-0.0941 -1.17599,0.11568 -1.82374,0.62927 l -3.76116,2.98223 3.90174,4.92085 -1.45745,1.15561 -9.0585,-11.42453 5.26563,-4.1751 c 1.1179,-0.88637 2.18585,-1.29924 3.20385,-1.23861 1.02016,0.0419 1.91958,0.55393 2.69828,1.53599 0.5136,0.64777 0.79918,1.29766 0.85673,1.94967 0.0576,0.65203 -0.10806,1.38742 -0.49685,2.20615 m -1.71848,-2.74677 c -0.59645,-0.75222 -1.20501,-1.11198 -1.82569,-1.0793 -0.62067,0.0327 -1.28101,0.32659 -1.981,0.88159 l -3.52609,2.79584 3.11891,3.93354 3.52608,-2.79583 c 0.77313,-0.613 1.21304,-1.21705 1.31975,-1.81214 0.11714,-0.60336 -0.0935,-1.24459 -0.63196,-1.9237"
         id="path3068" />
      <path
         d="m 479.82747,506.19541 3.31302,3.74484 6.44113,-5.6984 1.08667,1.22831 -7.83422,6.93084 -9.66076,-10.91996 7.56458,-6.6923 1.08667,1.22831 -6.1715,5.45985 3.08773,3.4902 5.94682,-5.26108 1.08667,1.22831 -5.94681,5.26108"
         id="path3070" />
      <path
         d="m 494.79009,499.78438 c 0.53205,-0.52385 0.92254,-1.02995 1.17147,-1.5183 0.24893,-0.48833 0.36068,-0.91645 0.33525,-1.28437 -0.0159,-0.37724 -0.0842,-0.69362 -0.20477,-0.94914 -0.12044,-0.27434 -0.28824,-0.52078 -0.50339,-0.73932 -0.77643,-0.78857 -1.96492,-0.72237 -3.56546,0.1986 l -3.25305,1.85571 c -1.70476,0.98617 -3.17922,0.84744 -4.42339,-0.4162 -0.9261,-0.94058 -1.32797,-2.00439 -1.20563,-3.19143 0.12251,-1.20587 0.75382,-2.37008 1.89394,-3.49265 1.19713,-1.17866 2.40886,-1.81038 3.6352,-1.89516 1.217,-0.0942 2.33071,0.36225 3.34116,1.36948 l -1.25414,1.23481 c -0.67367,-0.6652 -1.41152,-0.9585 -2.21354,-0.87988 -0.81138,0.0691 -1.63036,0.51063 -2.45695,1.32446 -0.70307,0.69226 -1.10935,1.41037 -1.21884,2.15435 -0.1,0.73465 0.10728,1.36324 0.62177,1.88579 0.3929,0.39905 0.82987,0.58629 1.3109,0.56173 0.48104,-0.0245 1.11928,-0.26 1.91473,-0.7064 l 3.29558,-1.86951 c 0.89017,-0.50221 1.74978,-0.71239 2.57884,-0.63054 0.83856,0.0725 1.57122,0.42706 2.19798,1.06361 0.27128,0.27554 0.50456,0.58849 0.69984,0.93884 0.19542,0.33152 0.34311,0.73809 0.44309,1.2197 0.0906,0.47213 0.0962,0.96245 0.0169,1.47096 -0.0794,0.50852 -0.29594,1.07726 -0.64966,1.7062 -0.34424,0.61961 -0.82514,1.23343 -1.4427,1.84148 -0.38954,0.38354 -0.79757,0.71979 -1.22409,1.00876 -0.40767,0.28912 -0.87628,0.53533 -1.40585,0.73864 -0.53892,0.19381 -1.06768,0.29342 -1.58628,0.29882 -0.52796,-0.004 -1.09735,-0.1358 -1.70818,-0.39511 -0.60133,-0.26866 -1.18738,-0.68335 -1.75816,-1.24405 l 1.25413,-1.23481 0.0702,0.0713 c 0.28999,0.29453 0.60403,0.52796 0.94211,0.7003 0.34759,0.16298 0.74275,0.26976 1.18549,0.32034 0.45224,0.0412 0.95272,-0.0586 1.50143,-0.29948 0.54886,-0.25973 1.10357,-0.66556 1.66414,-1.21749"
         id="path3072" />
      <path
         d="m 492.22687,483.1934 10.63604,9.9725 -1.28589,1.37145 -10.63604,-9.9725 1.28589,-1.37145"
         id="path3074" />
      <path
         d="m 507.64485,486.05451 c 0.48923,-0.56406 0.83873,-1.09929 1.0485,-1.6057 0.20976,-0.50639 0.28751,-0.94197 0.23325,-1.30675 -0.0455,-0.37483 -0.13846,-0.68486 -0.27875,-0.9301 -0.14164,-0.26403 -0.32829,-0.49652 -0.55996,-0.69746 -0.83602,-0.7251 -2.01562,-0.56567 -3.53881,0.47827 l -3.09711,2.10568 c -1.62196,1.11714 -3.10276,1.09475 -4.44241,-0.0672 -0.99718,-0.86488 -1.48144,-1.8938 -1.45278,-3.08678 0.0273,-1.21177 0.56517,-2.42201 1.61351,-3.63073 1.10077,-1.26912 2.25909,-1.99414 3.47498,-2.17506 1.20581,-0.18963 2.35197,0.1779 3.43846,1.10259 l -1.15318,1.32957 c -0.72388,-0.61018 -1.4825,-0.84456 -2.27586,-0.70314 -0.80343,0.13271 -1.58517,0.63721 -2.34523,1.51351 -0.64647,0.74538 -0.99504,1.49321 -1.04571,2.24349 -0.0419,0.74024 0.21411,1.35059 0.76809,1.83107 0.42306,0.36693 0.87339,0.51925 1.351,0.45695 0.47762,-0.0623 1.09538,-0.34719 1.85327,-0.85474 l 3.13843,-2.1228 c 0.84792,-0.57063 1.68835,-0.84773 2.52129,-0.83131 0.84166,0.006 1.59992,0.30222 2.27479,0.88754 0.2921,0.25336 0.54925,0.547 0.77147,0.88092 0.22087,0.31513 0.40008,0.70883 0.53761,1.18109 0.12744,0.46355 0.17159,0.95191 0.13244,1.46508 -0.0392,0.51319 -0.21033,1.09719 -0.51352,1.752 -0.29447,0.64474 -0.72562,1.29447 -1.29347,1.94918 -0.35819,0.41298 -0.73852,0.78027 -1.141,1.10187 -0.38368,0.32027 -0.83149,0.60256 -1.34343,0.84687 -0.52202,0.23558 -1.04132,0.37644 -1.55789,0.42259 -0.52664,0.0374 -1.10463,-0.0491 -1.73395,-0.2596 -0.62059,-0.22056 -1.23743,-0.58789 -1.85052,-1.10199 l 1.15318,-1.32958 0.0755,0.0655 c 0.31225,0.27083 0.64367,0.47886 0.99425,0.62408 0.35932,0.13515 0.76166,0.21054 1.207,0.22615 0.45409,0.006 0.94517,-0.13331 1.47325,-0.41658 0.52674,-0.30207 1.04783,-0.75025 1.56327,-1.34453"
         id="path3076" />
      <path
         d="m 506.44861,468.93304 10.19558,7.96828 -1.14536,1.46552 -10.19558,-7.96828 -2.95577,3.78197 -1.29218,-1.00989 7.0446,-9.01371 1.29217,1.00989 -2.94346,3.76622"
         id="path3078" />
      <path
         d="m 521.06,463.38291 -3.22287,4.60407 2.7051,3.77339 -1.13546,1.62207 -8.96237,-12.62109 1.37632,-1.96615 14.8805,4.16664 -1.1928,1.70399 -4.44842,-1.28292 m -1.5762,-0.4686 -6.72425,-1.97273 4.06338,5.77395 2.66087,-3.80122"
         id="path3080" />
      <path
         d="m 521.24437,444.07546 12.41584,7.64349 -1.10092,1.78829 -14.01832,0.22424 10.06552,6.19657 -0.92267,1.49876 -12.41584,-7.64349 1.05897,-1.72016 14.14542,-0.23994 -10.15067,-6.249 0.92267,-1.49876"
         id="path3082" />
      <path
         d="m 528.64143,446.19838 c -0.58758,-0.31494 -1.14409,-0.67373 -1.66954,-1.0764 -0.51913,-0.4144 -1.01454,-0.92954 -1.48621,-1.54543 -0.47166,-0.61587 -0.82642,-1.25229 -1.06429,-1.90926 -0.2433,-0.675 -0.32876,-1.44695 -0.25638,-2.31583 0.0787,-0.88061 0.35739,-1.76748 0.83609,-2.66062 1.49913,-2.79689 3.78257,-3.69844 6.85031,-2.70466 l -0.89758,1.67462 c -1.01741,-0.30327 -1.9033,-0.30157 -2.65766,0.005 -0.75436,0.30669 -1.40554,0.97122 -1.95354,1.99361 -0.66767,1.24569 -0.72083,2.48793 -0.15948,3.72673 0.56767,1.22707 1.67411,2.28151 3.31934,3.16334 1.60999,0.86295 3.09248,1.17347 4.44749,0.93156 1.34326,-0.2482 2.35818,-1.01276 3.04475,-2.2937 0.56689,-1.05765 0.70772,-2.02598 0.42248,-2.90501 -0.29699,-0.88531 -1.01478,-1.7617 -2.15338,-2.62917 l 0.90703,-1.69224 c 3.18837,2.20818 3.94167,4.88111 2.25988,8.0188 -0.47241,0.88138 -1.04448,1.59589 -1.7162,2.14351 -0.67718,0.52959 -1.3583,0.88308 -2.04337,1.06048 -0.67878,0.16566 -1.39929,0.22574 -2.16156,0.18023 -0.76771,-0.0635 -1.46195,-0.19361 -2.08272,-0.39019 -0.61447,-0.20832 -1.20962,-0.46681 -1.78546,-0.77546"
         id="path3084" />
      <path
         d="m 536.805,431.53446 4.53144,2.11329 3.63486,-7.79407 1.48631,0.69316 -4.42101,9.47977 -13.21368,-6.16236 4.26886,-9.15351 1.48631,0.69316 -3.48271,7.46781 4.2233,1.96959 3.35591,-7.19593 1.48632,0.69316 -3.35591,7.19593"
         id="path3086" />
    </g>
  </g>
</svg>
